  0
SECTION
  2
HEADER
  9
$ACADVER
  1
AC1009
  9
$EXTMIN
 10
0.0
 20
0.0
 30
0.0
  9
$EXTMAX
 10
1000.0
 20
1000.0
 30
0.0
  9
$FILLMODE
 70
 0
  9
$SPLFRAME
 70
 1
  0
ENDSEC
  0
SECTION
  2
TABLES
  0
TABLE
  2
LAYER
 70
1
  0
LAYER
  2
0
 70
     0
 62
     7
  6
CONTINUOUS
  0
ENDTAB
  0
ENDSEC
  0
SECTION
  2
ENTITIES
  0
LINE
  8
0
 62
     1
 10
55.9731
 20
45.0275
 30
0.0
 11
55.9731
 21
45.5828
 31
0.0
  0
LINE
  8
0
 62
     1
 10
55.9731
 20
45.5828
 30
0.0
 11
55.7484
 21
47.2447
 31
0.0
  0
LINE
  8
0
 62
     1
 10
55.7484
 20
47.2447
 30
0.0
 11
55.1078
 21
49.3102
 31
0.0
  0
LINE
  8
0
 62
     1
 10
55.1078
 20
49.3102
 30
0.0
 11
54.0935
 21
51.1789
 31
0.0
  0
LINE
  8
0
 62
     1
 10
54.0935
 20
51.1789
 30
0.0
 11
52.7498
 21
52.8066
 31
0.0
  0
LINE
  8
0
 62
     1
 10
52.7498
 20
52.8066
 30
0.0
 11
51.1224
 21
54.15
 31
0.0
  0
LINE
  8
0
 62
     1
 10
51.1224
 20
54.15
 30
0.0
 11
49.2538
 21
55.1642
 31
0.0
  0
LINE
  8
0
 62
     1
 10
49.2538
 20
55.1642
 30
0.0
 11
47.1883
 21
55.8052
 31
0.0
  0
LINE
  8
0
 62
     1
 10
47.1883
 20
55.8052
 30
0.0
 11
45.5263
 21
56.0282
 31
0.0
  0
LINE
  8
0
 62
     1
 10
45.5263
 20
56.0282
 30
0.0
 11
44.9721
 21
56.0282
 31
0.0
  0
LINE
  8
0
 62
     1
 10
44.9721
 20
56.0282
 30
0.0
 11
44.4168
 21
56.0282
 31
0.0
  0
LINE
  8
0
 62
     1
 10
44.4168
 20
56.0282
 30
0.0
 11
42.7549
 21
55.8052
 31
0.0
  0
LINE
  8
0
 62
     1
 10
42.7549
 20
55.8052
 30
0.0
 11
40.6908
 21
55.1642
 31
0.0
  0
LINE
  8
0
 62
     1
 10
40.6908
 20
55.1642
 30
0.0
 11
38.8221
 21
54.15
 31
0.0
  0
LINE
  8
0
 62
     1
 10
38.8221
 20
54.15
 30
0.0
 11
37.1948
 21
52.8066
 31
0.0
  0
LINE
  8
0
 62
     1
 10
37.1948
 20
52.8066
 30
0.0
 11
35.851
 21
51.1789
 31
0.0
  0
LINE
  8
0
 62
     1
 10
35.851
 20
51.1789
 30
0.0
 11
34.8368
 21
49.3102
 31
0.0
  0
LINE
  8
0
 62
     1
 10
34.8368
 20
49.3102
 30
0.0
 11
34.196
 21
47.2447
 31
0.0
  0
LINE
  8
0
 62
     1
 10
34.196
 20
47.2447
 30
0.0
 11
33.9728
 21
45.5828
 31
0.0
  0
LINE
  8
0
 62
     1
 10
33.9728
 20
45.5828
 30
0.0
 11
33.9728
 21
45.0275
 31
0.0
  0
LINE
  8
0
 62
     1
 10
33.9728
 20
45.0275
 30
0.0
 11
33.9728
 21
44.4733
 31
0.0
  0
LINE
  8
0
 62
     1
 10
33.9728
 20
44.4733
 30
0.0
 11
34.196
 21
42.8113
 31
0.0
  0
LINE
  8
0
 62
     1
 10
34.196
 20
42.8113
 30
0.0
 11
34.8368
 21
40.7472
 31
0.0
  0
LINE
  8
0
 62
     1
 10
34.8368
 20
40.7472
 30
0.0
 11
35.851
 21
38.8786
 31
0.0
  0
LINE
  8
0
 62
     1
 10
35.851
 20
38.8786
 30
0.0
 11
37.1948
 21
37.2498
 31
0.0
  0
LINE
  8
0
 62
     1
 10
37.1948
 20
37.2498
 30
0.0
 11
38.8221
 21
35.9061
 31
0.0
  0
LINE
  8
0
 62
     1
 10
38.8221
 20
35.9061
 30
0.0
 11
40.6908
 21
34.8919
 31
0.0
  0
LINE
  8
0
 62
     1
 10
40.6908
 20
34.8919
 30
0.0
 11
42.7549
 21
34.2511
 31
0.0
  0
LINE
  8
0
 62
     1
 10
42.7549
 20
34.2511
 30
0.0
 11
44.4168
 21
34.0265
 31
0.0
  0
LINE
  8
0
 62
     1
 10
44.4168
 20
34.0265
 30
0.0
 11
44.9721
 21
34.0265
 31
0.0
  0
LINE
  8
0
 62
     1
 10
44.9721
 20
34.0265
 30
0.0
 11
45.5263
 21
34.0265
 31
0.0
  0
LINE
  8
0
 62
     1
 10
45.5263
 20
34.0265
 30
0.0
 11
47.1883
 21
34.2511
 31
0.0
  0
LINE
  8
0
 62
     1
 10
47.1883
 20
34.2511
 30
0.0
 11
49.2538
 21
34.8919
 31
0.0
  0
LINE
  8
0
 62
     1
 10
49.2538
 20
34.8919
 30
0.0
 11
51.1224
 21
35.9061
 31
0.0
  0
LINE
  8
0
 62
     1
 10
51.1224
 20
35.9061
 30
0.0
 11
52.7498
 21
37.2498
 31
0.0
  0
LINE
  8
0
 62
     1
 10
52.7498
 20
37.2498
 30
0.0
 11
54.0935
 21
38.8786
 31
0.0
  0
LINE
  8
0
 62
     1
 10
54.0935
 20
38.8786
 30
0.0
 11
55.1078
 21
40.7472
 31
0.0
  0
LINE
  8
0
 62
     1
 10
55.1078
 20
40.7472
 30
0.0
 11
55.7484
 21
42.8113
 31
0.0
  0
LINE
  8
0
 62
     1
 10
55.7484
 20
42.8113
 30
0.0
 11
55.9731
 21
44.4733
 31
0.0
  0
LINE
  8
0
 62
     1
 10
55.9731
 20
44.4733
 30
0.0
 11
55.9731
 21
45.0275
 31
0.0
  0
LINE
  8
0
 62
     1
 10
33.5221
 20
57.9783
 30
0.0
 11
33.5221
 21
57.8323
 31
0.0
  0
LINE
  8
0
 62
     1
 10
33.5221
 20
57.8323
 30
0.0
 11
33.4036
 21
57.3938
 31
0.0
  0
LINE
  8
0
 62
     1
 10
33.4036
 20
57.3938
 30
0.0
 11
33.0825
 21
56.9172
 31
0.0
  0
LINE
  8
0
 62
     1
 10
33.0825
 20
56.9172
 30
0.0
 11
32.6058
 21
56.5961
 31
0.0
  0
LINE
  8
0
 62
     1
 10
32.6058
 20
56.5961
 30
0.0
 11
32.1675
 21
56.4776
 31
0.0
  0
LINE
  8
0
 62
     1
 10
32.1675
 20
56.4776
 30
0.0
 11
32.0228
 21
56.4776
 31
0.0
  0
LINE
  8
0
 62
     1
 10
32.0228
 20
56.4776
 30
0.0
 11
31.8768
 21
56.4776
 31
0.0
  0
LINE
  8
0
 62
     1
 10
31.8768
 20
56.4776
 30
0.0
 11
31.4386
 21
56.5961
 31
0.0
  0
LINE
  8
0
 62
     1
 10
31.4386
 20
56.5961
 30
0.0
 11
30.9618
 21
56.9172
 31
0.0
  0
LINE
  8
0
 62
     1
 10
30.9618
 20
56.9172
 30
0.0
 11
30.6393
 21
57.3938
 31
0.0
  0
LINE
  8
0
 62
     1
 10
30.6393
 20
57.3938
 30
0.0
 11
30.5222
 21
57.8323
 31
0.0
  0
LINE
  8
0
 62
     1
 10
30.5222
 20
57.8323
 30
0.0
 11
30.5222
 21
57.9783
 31
0.0
  0
LINE
  8
0
 62
     1
 10
30.5222
 20
57.9783
 30
0.0
 11
30.5222
 21
58.1244
 31
0.0
  0
LINE
  8
0
 62
     1
 10
30.5222
 20
58.1244
 30
0.0
 11
30.6393
 21
58.5625
 31
0.0
  0
LINE
  8
0
 62
     1
 10
30.6393
 20
58.5625
 30
0.0
 11
30.9618
 21
59.0391
 31
0.0
  0
LINE
  8
0
 62
     1
 10
30.9618
 20
59.0391
 30
0.0
 11
31.4386
 21
59.3605
 31
0.0
  0
LINE
  8
0
 62
     1
 10
31.4386
 20
59.3605
 30
0.0
 11
31.8768
 21
59.4776
 31
0.0
  0
LINE
  8
0
 62
     1
 10
31.8768
 20
59.4776
 30
0.0
 11
32.0228
 21
59.4776
 31
0.0
  0
LINE
  8
0
 62
     1
 10
32.0228
 20
59.4776
 30
0.0
 11
32.1675
 21
59.4776
 31
0.0
  0
LINE
  8
0
 62
     1
 10
32.1675
 20
59.4776
 30
0.0
 11
32.6058
 21
59.3605
 31
0.0
  0
LINE
  8
0
 62
     1
 10
32.6058
 20
59.3605
 30
0.0
 11
33.0825
 21
59.0391
 31
0.0
  0
LINE
  8
0
 62
     1
 10
33.0825
 20
59.0391
 30
0.0
 11
33.4036
 21
58.5625
 31
0.0
  0
LINE
  8
0
 62
     1
 10
33.4036
 20
58.5625
 30
0.0
 11
33.5221
 21
58.1244
 31
0.0
  0
LINE
  8
0
 62
     1
 10
33.5221
 20
58.1244
 30
0.0
 11
33.5221
 21
57.9783
 31
0.0
  0
LINE
  8
0
 62
     1
 10
33.5221
 20
32.078
 30
0.0
 11
33.5221
 21
31.9319
 31
0.0
  0
LINE
  8
0
 62
     1
 10
33.5221
 20
31.9319
 30
0.0
 11
33.4036
 21
31.4937
 31
0.0
  0
LINE
  8
0
 62
     1
 10
33.4036
 20
31.4937
 30
0.0
 11
33.0825
 21
31.0169
 31
0.0
  0
LINE
  8
0
 62
     1
 10
33.0825
 20
31.0169
 30
0.0
 11
32.6058
 21
30.6958
 31
0.0
  0
LINE
  8
0
 62
     1
 10
32.6058
 20
30.6958
 30
0.0
 11
32.1675
 21
30.5773
 31
0.0
  0
LINE
  8
0
 62
     1
 10
32.1675
 20
30.5773
 30
0.0
 11
32.0228
 21
30.5773
 31
0.0
  0
LINE
  8
0
 62
     1
 10
32.0228
 20
30.5773
 30
0.0
 11
31.8768
 21
30.5773
 31
0.0
  0
LINE
  8
0
 62
     1
 10
31.8768
 20
30.5773
 30
0.0
 11
31.4386
 21
30.6958
 31
0.0
  0
LINE
  8
0
 62
     1
 10
31.4386
 20
30.6958
 30
0.0
 11
30.9618
 21
31.0169
 31
0.0
  0
LINE
  8
0
 62
     1
 10
30.9618
 20
31.0169
 30
0.0
 11
30.6393
 21
31.4937
 31
0.0
  0
LINE
  8
0
 62
     1
 10
30.6393
 20
31.4937
 30
0.0
 11
30.5222
 21
31.9319
 31
0.0
  0
LINE
  8
0
 62
     1
 10
30.5222
 20
31.9319
 30
0.0
 11
30.5222
 21
32.078
 31
0.0
  0
LINE
  8
0
 62
     1
 10
30.5222
 20
32.078
 30
0.0
 11
30.5222
 21
32.2241
 31
0.0
  0
LINE
  8
0
 62
     1
 10
30.5222
 20
32.2241
 30
0.0
 11
30.6393
 21
32.6622
 31
0.0
  0
LINE
  8
0
 62
     1
 10
30.6393
 20
32.6622
 30
0.0
 11
30.9618
 21
33.1391
 31
0.0
  0
LINE
  8
0
 62
     1
 10
30.9618
 20
33.1391
 30
0.0
 11
31.4386
 21
33.4602
 31
0.0
  0
LINE
  8
0
 62
     1
 10
31.4386
 20
33.4602
 30
0.0
 11
31.8768
 21
33.5773
 31
0.0
  0
LINE
  8
0
 62
     1
 10
31.8768
 20
33.5773
 30
0.0
 11
32.0228
 21
33.5773
 31
0.0
  0
LINE
  8
0
 62
     1
 10
32.0228
 20
33.5773
 30
0.0
 11
32.1675
 21
33.5773
 31
0.0
  0
LINE
  8
0
 62
     1
 10
32.1675
 20
33.5773
 30
0.0
 11
32.6058
 21
33.4602
 31
0.0
  0
LINE
  8
0
 62
     1
 10
32.6058
 20
33.4602
 30
0.0
 11
33.0825
 21
33.1391
 31
0.0
  0
LINE
  8
0
 62
     1
 10
33.0825
 20
33.1391
 30
0.0
 11
33.4036
 21
32.6622
 31
0.0
  0
LINE
  8
0
 62
     1
 10
33.4036
 20
32.6622
 30
0.0
 11
33.5221
 21
32.2241
 31
0.0
  0
LINE
  8
0
 62
     1
 10
33.5221
 20
32.2241
 30
0.0
 11
33.5221
 21
32.078
 31
0.0
  0
LINE
  8
0
 62
     1
 10
59.4222
 20
57.9783
 30
0.0
 11
59.4222
 21
57.8323
 31
0.0
  0
LINE
  8
0
 62
     1
 10
59.4222
 20
57.8323
 30
0.0
 11
59.3037
 21
57.3938
 31
0.0
  0
LINE
  8
0
 62
     1
 10
59.3037
 20
57.3938
 30
0.0
 11
58.9827
 21
56.9172
 31
0.0
  0
LINE
  8
0
 62
     1
 10
58.9827
 20
56.9172
 30
0.0
 11
58.5061
 21
56.5961
 31
0.0
  0
LINE
  8
0
 62
     1
 10
58.5061
 20
56.5961
 30
0.0
 11
58.0679
 21
56.4776
 31
0.0
  0
LINE
  8
0
 62
     1
 10
58.0679
 20
56.4776
 30
0.0
 11
57.9229
 21
56.4776
 31
0.0
  0
LINE
  8
0
 62
     1
 10
57.9229
 20
56.4776
 30
0.0
 11
57.7755
 21
56.4776
 31
0.0
  0
LINE
  8
0
 62
     1
 10
57.7755
 20
56.4776
 30
0.0
 11
57.3373
 21
56.5961
 31
0.0
  0
LINE
  8
0
 62
     1
 10
57.3373
 20
56.5961
 30
0.0
 11
56.8607
 21
56.9172
 31
0.0
  0
LINE
  8
0
 62
     1
 10
56.8607
 20
56.9172
 30
0.0
 11
56.5397
 21
57.3938
 31
0.0
  0
LINE
  8
0
 62
     1
 10
56.5397
 20
57.3938
 30
0.0
 11
56.4226
 21
57.8323
 31
0.0
  0
LINE
  8
0
 62
     1
 10
56.4226
 20
57.8323
 30
0.0
 11
56.4226
 21
57.9783
 31
0.0
  0
LINE
  8
0
 62
     1
 10
56.4226
 20
57.9783
 30
0.0
 11
56.4226
 21
58.1244
 31
0.0
  0
LINE
  8
0
 62
     1
 10
56.4226
 20
58.1244
 30
0.0
 11
56.5397
 21
58.5625
 31
0.0
  0
LINE
  8
0
 62
     1
 10
56.5397
 20
58.5625
 30
0.0
 11
56.8607
 21
59.0391
 31
0.0
  0
LINE
  8
0
 62
     1
 10
56.8607
 20
59.0391
 30
0.0
 11
57.3373
 21
59.3605
 31
0.0
  0
LINE
  8
0
 62
     1
 10
57.3373
 20
59.3605
 30
0.0
 11
57.7755
 21
59.4776
 31
0.0
  0
LINE
  8
0
 62
     1
 10
57.7755
 20
59.4776
 30
0.0
 11
57.9229
 21
59.4776
 31
0.0
  0
LINE
  8
0
 62
     1
 10
57.9229
 20
59.4776
 30
0.0
 11
58.0679
 21
59.4776
 31
0.0
  0
LINE
  8
0
 62
     1
 10
58.0679
 20
59.4776
 30
0.0
 11
58.5061
 21
59.3605
 31
0.0
  0
LINE
  8
0
 62
     1
 10
58.5061
 20
59.3605
 30
0.0
 11
58.9827
 21
59.0391
 31
0.0
  0
LINE
  8
0
 62
     1
 10
58.9827
 20
59.0391
 30
0.0
 11
59.3037
 21
58.5625
 31
0.0
  0
LINE
  8
0
 62
     1
 10
59.3037
 20
58.5625
 30
0.0
 11
59.4222
 21
58.1244
 31
0.0
  0
LINE
  8
0
 62
     1
 10
59.4222
 20
58.1244
 30
0.0
 11
59.4222
 21
57.9783
 31
0.0
  0
LINE
  8
0
 62
     1
 10
59.472
 20
32.027
 30
0.0
 11
59.472
 21
31.8823
 31
0.0
  0
LINE
  8
0
 62
     1
 10
59.472
 20
31.8823
 30
0.0
 11
59.3535
 21
31.4441
 31
0.0
  0
LINE
  8
0
 62
     1
 10
59.3535
 20
31.4441
 30
0.0
 11
59.0324
 21
30.9673
 31
0.0
  0
LINE
  8
0
 62
     1
 10
59.0324
 20
30.9673
 30
0.0
 11
58.5555
 21
30.6448
 31
0.0
  0
LINE
  8
0
 62
     1
 10
58.5555
 20
30.6448
 30
0.0
 11
58.1173
 21
30.5263
 31
0.0
  0
LINE
  8
0
 62
     1
 10
58.1173
 20
30.5263
 30
0.0
 11
57.9727
 21
30.5263
 31
0.0
  0
LINE
  8
0
 62
     1
 10
57.9727
 20
30.5263
 30
0.0
 11
57.8266
 21
30.5263
 31
0.0
  0
LINE
  8
0
 62
     1
 10
57.8266
 20
30.5263
 30
0.0
 11
57.3885
 21
30.6448
 31
0.0
  0
LINE
  8
0
 62
     1
 10
57.3885
 20
30.6448
 30
0.0
 11
56.9115
 21
30.9673
 31
0.0
  0
LINE
  8
0
 62
     1
 10
56.9115
 20
30.9673
 30
0.0
 11
56.5891
 21
31.4441
 31
0.0
  0
LINE
  8
0
 62
     1
 10
56.5891
 20
31.4441
 30
0.0
 11
56.472
 21
31.8823
 31
0.0
  0
LINE
  8
0
 62
     1
 10
56.472
 20
31.8823
 30
0.0
 11
56.472
 21
32.027
 31
0.0
  0
LINE
  8
0
 62
     1
 10
56.472
 20
32.027
 30
0.0
 11
56.472
 21
32.1731
 31
0.0
  0
LINE
  8
0
 62
     1
 10
56.472
 20
32.1731
 30
0.0
 11
56.5891
 21
32.6113
 31
0.0
  0
LINE
  8
0
 62
     1
 10
56.5891
 20
32.6113
 30
0.0
 11
56.9115
 21
33.0881
 31
0.0
  0
LINE
  8
0
 62
     1
 10
56.9115
 20
33.0881
 30
0.0
 11
57.3885
 21
33.4092
 31
0.0
  0
LINE
  8
0
 62
     1
 10
57.3885
 20
33.4092
 30
0.0
 11
57.8266
 21
33.5263
 31
0.0
  0
LINE
  8
0
 62
     1
 10
57.8266
 20
33.5263
 30
0.0
 11
57.9727
 21
33.5263
 31
0.0
  0
LINE
  8
0
 62
     1
 10
57.9727
 20
33.5263
 30
0.0
 11
58.1173
 21
33.5263
 31
0.0
  0
LINE
  8
0
 62
     1
 10
58.1173
 20
33.5263
 30
0.0
 11
58.5555
 21
33.4092
 31
0.0
  0
LINE
  8
0
 62
     1
 10
58.5555
 20
33.4092
 30
0.0
 11
59.0324
 21
33.0881
 31
0.0
  0
LINE
  8
0
 62
     1
 10
59.0324
 20
33.0881
 30
0.0
 11
59.3535
 21
32.6113
 31
0.0
  0
LINE
  8
0
 62
     1
 10
59.3535
 20
32.6113
 30
0.0
 11
59.472
 21
32.1731
 31
0.0
  0
LINE
  8
0
 62
     1
 10
59.472
 20
32.1731
 30
0.0
 11
59.472
 21
32.027
 31
0.0
  0
LINE
  8
0
 62
     1
 10
84.5965
 20
23.7326
 30
0.0
 11
83.7008
 21
22.0665
 31
0.0
  0
LINE
  8
0
 62
     1
 10
83.7008
 20
22.0665
 30
0.0
 11
80.4527
 21
17.3702
 31
0.0
  0
LINE
  8
0
 62
     1
 10
80.4527
 20
17.3702
 30
0.0
 11
75.4133
 21
11.9035
 31
0.0
  0
LINE
  8
0
 62
     1
 10
75.4133
 20
11.9035
 30
0.0
 11
69.6158
 21
7.39454
 31
0.0
  0
LINE
  8
0
 62
     1
 10
69.6158
 20
7.39454
 30
0.0
 11
63.2008
 21
3.90673
 31
0.0
  0
LINE
  8
0
 62
     1
 10
63.2008
 20
3.90673
 30
0.0
 11
56.3065
 21
1.49931
 31
0.0
  0
LINE
  8
0
 62
     1
 10
56.3065
 20
1.49931
 30
0.0
 11
49.0721
 21
0.237023
 31
0.0
  0
LINE
  8
0
 62
     1
 10
49.0721
 20
0.237023
 30
0.0
 11
41.6373
 21
0.179145
 31
0.0
  0
LINE
  8
0
 62
     1
 10
41.6373
 20
0.179145
 30
0.0
 11
35.9752
 21
0.930176
 31
0.0
  0
LINE
  8
0
 62
     1
 10
35.9752
 20
0.930176
 30
0.0
 11
34.1409
 21
1.38631
 31
0.0
  0
LINE
  8
0
 62
     1
 10
34.1409
 20
1.38631
 30
0.0
 11
32.3053
 21
1.84381
 31
0.0
  0
LINE
  8
0
 62
     1
 10
32.3053
 20
1.84381
 30
0.0
 11
26.9517
 21
3.83371
 31
0.0
  0
LINE
  8
0
 62
     1
 10
26.9517
 20
3.83371
 30
0.0
 11
20.4115
 21
7.37112
 31
0.0
  0
LINE
  8
0
 62
     1
 10
20.4115
 20
7.37112
 30
0.0
 11
14.6141
 21
11.8773
 31
0.0
  0
LINE
  8
0
 62
     1
 10
14.6141
 20
11.8773
 30
0.0
 11
9.65179
 21
17.2351
 31
0.0
  0
LINE
  8
0
 62
     1
 10
9.65179
 20
17.2351
 30
0.0
 11
5.62102
 21
23.3247
 31
0.0
  0
LINE
  8
0
 62
     1
 10
5.62102
 20
23.3247
 30
0.0
 11
2.61414
 21
30.0247
 31
0.0
  0
LINE
  8
0
 62
     1
 10
2.61414
 20
30.0247
 30
0.0
 11
0.726225
 21
37.2152
 31
0.0
  0
LINE
  8
0
 62
     1
 10
0.726225
 20
37.2152
 30
0.0
 11
0.0592557
 21
42.8872
 31
0.0
  0
LINE
  8
0
 62
     1
 10
0.0592557
 20
42.8872
 30
0.0
 11
0.0509873
 21
44.7781
 31
0.0
  0
LINE
  8
0
 62
     1
 10
0.0509873
 20
44.7781
 30
0.0
 11
0.0413413
 21
46.67
 31
0.0
  0
LINE
  8
0
 62
     1
 10
0.0413413
 20
46.67
 30
0.0
 11
0.650434
 21
52.349
 31
0.0
  0
LINE
  8
0
 62
     1
 10
0.650434
 20
52.349
 30
0.0
 11
2.46669
 21
59.5588
 31
0.0
  0
LINE
  8
0
 62
     1
 10
2.46669
 20
59.5588
 30
0.0
 11
5.40604
 21
66.2876
 31
0.0
  0
LINE
  8
0
 62
     1
 10
5.40604
 20
66.2876
 30
0.0
 11
9.37616
 21
72.4172
 31
0.0
  0
LINE
  8
0
 62
     1
 10
9.37616
 20
72.4172
 30
0.0
 11
14.2847
 21
77.8245
 31
0.0
  0
LINE
  8
0
 62
     1
 10
14.2847
 20
77.8245
 30
0.0
 11
20.0367
 21
82.3888
 31
0.0
  0
LINE
  8
0
 62
     1
 10
20.0367
 20
82.3888
 30
0.0
 11
26.541
 21
85.991
 31
0.0
  0
LINE
  8
0
 62
     1
 10
26.541
 20
85.991
 30
0.0
 11
31.874
 21
88.036
 31
0.0
  0
LINE
  8
0
 62
     1
 10
31.874
 20
88.036
 30
0.0
 11
33.7054
 21
88.5102
 31
0.0
  0
LINE
  8
0
 62
     1
 10
33.7054
 20
88.5102
 30
0.0
 11
35.5353
 21
88.9854
 31
0.0
  0
LINE
  8
0
 62
     1
 10
35.5353
 20
88.9854
 30
0.0
 11
41.1896
 21
89.7929
 31
0.0
  0
LINE
  8
0
 62
     1
 10
41.1896
 20
89.7929
 30
0.0
 11
48.6255
 21
89.8095
 31
0.0
  0
LINE
  8
0
 62
     1
 10
48.6255
 20
89.8095
 30
0.0
 11
55.8712
 21
88.6174
 31
0.0
  0
LINE
  8
0
 62
     1
 10
55.8712
 20
88.6174
 30
0.0
 11
62.7902
 21
86.2803
 31
0.0
  0
LINE
  8
0
 62
     1
 10
62.7902
 20
86.2803
 30
0.0
 11
69.2397
 21
82.8559
 31
0.0
  0
LINE
  8
0
 62
     1
 10
69.2397
 20
82.8559
 30
0.0
 11
75.081
 21
78.4049
 31
0.0
  0
LINE
  8
0
 62
     1
 10
75.081
 20
78.4049
 30
0.0
 11
80.1744
 21
72.989
 31
0.0
  0
LINE
  8
0
 62
     1
 10
80.1744
 20
72.989
 30
0.0
 11
83.469
 21
68.3246
 31
0.0
  0
LINE
  8
0
 62
     1
 10
83.469
 20
68.3246
 30
0.0
 11
84.3813
 21
66.6669
 31
0.0
  0
LINE
  8
0
 62
     1
 10
125.662
 20
66.7508
 30
0.0
 11
124.813
 21
65.4995
 31
0.0
  0
LINE
  8
0
 62
     1
 10
124.813
 20
65.4995
 30
0.0
 11
121.653
 21
62.1619
 31
0.0
  0
LINE
  8
0
 62
     1
 10
121.653
 20
62.1619
 30
0.0
 11
116.73
 21
58.7223
 31
0.0
  0
LINE
  8
0
 62
     1
 10
116.73
 20
58.7223
 30
0.0
 11
111.125
 21
56.5602
 31
0.0
  0
LINE
  8
0
 62
     1
 10
111.125
 20
56.5602
 30
0.0
 11
106.591
 21
55.8024
 31
0.0
  0
LINE
  8
0
 62
     1
 10
106.591
 20
55.8024
 30
0.0
 11
105.081
 21
55.7982
 31
0.0
  0
LINE
  8
0
 62
     1
 10
105.081
 20
55.7982
 30
0.0
 11
103.569
 21
55.7939
 31
0.0
  0
LINE
  8
0
 62
     1
 10
103.569
 20
55.7939
 30
0.0
 11
99.0314
 21
56.5256
 31
0.0
  0
LINE
  8
0
 62
     1
 10
99.0314
 20
56.5256
 30
0.0
 11
93.4159
 21
58.6574
 31
0.0
  0
LINE
  8
0
 62
     1
 10
93.4159
 20
58.6574
 30
0.0
 11
88.4728
 21
62.0681
 31
0.0
  0
LINE
  8
0
 62
     1
 10
88.4728
 20
62.0681
 30
0.0
 11
85.2936
 21
65.3881
 31
0.0
  0
LINE
  8
0
 62
     1
 10
85.2936
 20
65.3881
 30
0.0
 11
84.4391
 21
66.6337
 31
0.0
  0
LINE
  8
0
 62
     1
 10
125.423
 20
23.7009
 30
0.0
 11
124.568
 21
24.9191
 31
0.0
  0
LINE
  8
0
 62
     1
 10
124.568
 20
24.9191
 30
0.0
 11
121.413
 21
28.1561
 31
0.0
  0
LINE
  8
0
 62
     1
 10
121.413
 20
28.1561
 30
0.0
 11
116.531
 21
31.4882
 31
0.0
  0
LINE
  8
0
 62
     1
 10
116.531
 20
31.4882
 30
0.0
 11
111.001
 21
33.5787
 31
0.0
  0
LINE
  8
0
 62
     1
 10
111.001
 20
33.5787
 30
0.0
 11
106.539
 21
34.3063
 31
0.0
  0
LINE
  8
0
 62
     1
 10
106.539
 20
34.3063
 30
0.0
 11
105.052
 21
34.3076
 31
0.0
  0
LINE
  8
0
 62
     1
 10
105.052
 20
34.3076
 30
0.0
 11
103.564
 21
34.3104
 31
0.0
  0
LINE
  8
0
 62
     1
 10
103.564
 20
34.3104
 30
0.0
 11
99.0988
 21
33.5966
 31
0.0
  0
LINE
  8
0
 62
     1
 10
99.0988
 20
33.5966
 30
0.0
 11
93.562
 21
31.5254
 31
0.0
  0
LINE
  8
0
 62
     1
 10
93.562
 20
31.5254
 30
0.0
 11
88.6686
 21
28.2084
 31
0.0
  0
LINE
  8
0
 62
     1
 10
88.6686
 20
28.2084
 30
0.0
 11
85.5031
 21
24.9811
 31
0.0
  0
LINE
  8
0
 62
     1
 10
85.5031
 20
24.9811
 30
0.0
 11
84.6448
 21
23.7657
 31
0.0
  0
LINE
  8
0
 62
     1
 10
125.727
 20
66.8154
 30
0.0
 11
126.46
 21
68.1373
 31
0.0
  0
LINE
  8
0
 62
     1
 10
126.46
 20
68.1373
 30
0.0
 11
129.018
 21
71.9046
 31
0.0
  0
LINE
  8
0
 62
     1
 10
129.018
 20
71.9046
 30
0.0
 11
132.906
 21
76.4452
 31
0.0
  0
LINE
  8
0
 62
     1
 10
132.906
 20
76.4452
 30
0.0
 11
137.324
 21
80.3988
 31
0.0
  0
LINE
  8
0
 62
     1
 10
137.324
 20
80.3988
 30
0.0
 11
142.205
 21
83.7255
 31
0.0
  0
LINE
  8
0
 62
     1
 10
142.205
 20
83.7255
 30
0.0
 11
147.479
 21
86.3836
 31
0.0
  0
LINE
  8
0
 62
     1
 10
147.479
 20
86.3836
 30
0.0
 11
153.078
 21
88.3348
 31
0.0
  0
LINE
  8
0
 62
     1
 10
153.078
 20
88.3348
 30
0.0
 11
158.935
 21
89.5368
 31
0.0
  0
LINE
  8
0
 62
     1
 10
158.935
 20
89.5368
 30
0.0
 11
163.47
 21
89.9488
 31
0.0
  0
LINE
  8
0
 62
     1
 10
163.47
 20
89.9488
 30
0.0
 11
164.981
 21
89.9502
 31
0.0
  0
LINE
  8
0
 62
     1
 10
164.981
 20
89.9502
 30
0.0
 11
166.492
 21
89.9513
 31
0.0
  0
LINE
  8
0
 62
     1
 10
166.492
 20
89.9513
 30
0.0
 11
171.027
 21
89.5491
 31
0.0
  0
LINE
  8
0
 62
     1
 10
171.027
 20
89.5491
 30
0.0
 11
176.886
 21
88.3599
 31
0.0
  0
LINE
  8
0
 62
     1
 10
176.886
 20
88.3599
 30
0.0
 11
182.489
 21
86.421
 31
0.0
  0
LINE
  8
0
 62
     1
 10
182.489
 20
86.421
 30
0.0
 11
187.77
 21
83.7738
 31
0.0
  0
LINE
  8
0
 62
     1
 10
187.77
 20
83.7738
 30
0.0
 11
192.657
 21
80.4566
 31
0.0
  0
LINE
  8
0
 62
     1
 10
192.657
 20
80.4566
 30
0.0
 11
197.083
 21
76.5129
 31
0.0
  0
LINE
  8
0
 62
     1
 10
197.083
 20
76.5129
 30
0.0
 11
200.981
 21
71.979
 31
0.0
  0
LINE
  8
0
 62
     1
 10
200.981
 20
71.979
 30
0.0
 11
203.546
 21
68.217
 31
0.0
  0
LINE
  8
0
 62
     1
 10
203.546
 20
68.217
 30
0.0
 11
204.283
 21
66.8969
 31
0.0
  0
LINE
  8
0
 62
     1
 10
125.48
 20
23.6389
 30
0.0
 11
126.202
 21
22.3022
 31
0.0
  0
LINE
  8
0
 62
     1
 10
126.202
 20
22.3022
 30
0.0
 11
128.731
 21
18.4864
 31
0.0
  0
LINE
  8
0
 62
     1
 10
128.731
 20
18.4864
 30
0.0
 11
132.593
 21
13.881
 31
0.0
  0
LINE
  8
0
 62
     1
 10
132.593
 20
13.881
 30
0.0
 11
136.998
 21
9.86398
 31
0.0
  0
LINE
  8
0
 62
     1
 10
136.998
 20
9.86398
 30
0.0
 11
141.873
 21
6.47679
 31
0.0
  0
LINE
  8
0
 62
     1
 10
141.873
 20
6.47679
 30
0.0
 11
147.152
 21
3.76068
 31
0.0
  0
LINE
  8
0
 62
     1
 10
147.152
 20
3.76068
 30
0.0
 11
152.767
 21
1.757
 31
0.0
  0
LINE
  8
0
 62
     1
 10
152.767
 20
1.757
 30
0.0
 11
158.647
 21
0.508497
 31
0.0
  0
LINE
  8
0
 62
     1
 10
158.647
 20
0.508497
 30
0.0
 11
163.204
 21
0.0647679
 31
0.0
  0
LINE
  8
0
 62
     1
 10
163.204
 20
0.0647679
 30
0.0
 11
164.724
 21
0.0537436
 31
0.0
  0
LINE
  8
0
 62
     1
 10
164.724
 20
0.0537436
 30
0.0
 11
166.242
 21
0.0440972
 31
0.0
  0
LINE
  8
0
 62
     1
 10
166.242
 20
0.0440972
 30
0.0
 11
170.805
 21
0.425813
 31
0.0
  0
LINE
  8
0
 62
     1
 10
170.805
 20
0.425813
 30
0.0
 11
176.702
 21
1.59577
 31
0.0
  0
LINE
  8
0
 62
     1
 10
176.702
 20
1.59577
 30
0.0
 11
182.342
 21
3.52227
 31
0.0
  0
LINE
  8
0
 62
     1
 10
182.342
 20
3.52227
 30
0.0
 11
187.658
 21
6.16673
 31
0.0
  0
LINE
  8
0
 62
     1
 10
187.658
 20
6.16673
 30
0.0
 11
192.58
 21
9.48778
 31
0.0
  0
LINE
  8
0
 62
     1
 10
192.58
 20
9.48778
 30
0.0
 11
197.037
 21
13.4455
 31
0.0
  0
LINE
  8
0
 62
     1
 10
197.037
 20
13.4455
 30
0.0
 11
200.961
 21
17.9985
 31
0.0
  0
LINE
  8
0
 62
     1
 10
200.961
 20
17.9985
 30
0.0
 11
203.542
 21
21.7799
 31
0.0
  0
LINE
  8
0
 62
     1
 10
203.542
 20
21.7799
 30
0.0
 11
204.283
 21
23.1069
 31
0.0
  0
LINE
  8
0
 62
     1
 10
245.699
 20
66.7523
 30
0.0
 11
244.85
 21
65.5024
 31
0.0
  0
LINE
  8
0
 62
     1
 10
244.85
 20
65.5024
 30
0.0
 11
241.69
 21
62.1647
 31
0.0
  0
LINE
  8
0
 62
     1
 10
241.69
 20
62.1647
 30
0.0
 11
236.765
 21
58.7252
 31
0.0
  0
LINE
  8
0
 62
     1
 10
236.765
 20
58.7252
 30
0.0
 11
231.162
 21
56.5616
 31
0.0
  0
LINE
  8
0
 62
     1
 10
231.162
 20
56.5616
 30
0.0
 11
226.628
 21
55.8052
 31
0.0
  0
LINE
  8
0
 62
     1
 10
226.628
 20
55.8052
 30
0.0
 11
225.118
 21
55.801
 31
0.0
  0
LINE
  8
0
 62
     1
 10
225.118
 20
55.801
 30
0.0
 11
223.606
 21
55.7967
 31
0.0
  0
LINE
  8
0
 62
     1
 10
223.606
 20
55.7967
 30
0.0
 11
219.068
 21
56.5284
 31
0.0
  0
LINE
  8
0
 62
     1
 10
219.068
 20
56.5284
 30
0.0
 11
213.453
 21
58.6588
 31
0.0
  0
LINE
  8
0
 62
     1
 10
213.453
 20
58.6588
 30
0.0
 11
208.51
 21
62.0709
 31
0.0
  0
LINE
  8
0
 62
     1
 10
208.51
 20
62.0709
 30
0.0
 11
205.33
 21
65.3905
 31
0.0
  0
LINE
  8
0
 62
     1
 10
205.33
 20
65.3905
 30
0.0
 11
204.476
 21
66.6365
 31
0.0
  0
LINE
  8
0
 62
     1
 10
245.46
 20
23.7023
 30
0.0
 11
244.604
 21
24.9204
 31
0.0
  0
LINE
  8
0
 62
     1
 10
244.604
 20
24.9204
 30
0.0
 11
241.45
 21
28.1588
 31
0.0
  0
LINE
  8
0
 62
     1
 10
241.45
 20
28.1588
 30
0.0
 11
236.566
 21
31.4909
 31
0.0
  0
LINE
  8
0
 62
     1
 10
236.566
 20
31.4909
 30
0.0
 11
231.036
 21
33.58
 31
0.0
  0
LINE
  8
0
 62
     1
 10
231.036
 20
33.58
 30
0.0
 11
226.574
 21
34.3076
 31
0.0
  0
LINE
  8
0
 62
     1
 10
226.574
 20
34.3076
 30
0.0
 11
225.087
 21
34.309
 31
0.0
  0
LINE
  8
0
 62
     1
 10
225.087
 20
34.309
 30
0.0
 11
223.599
 21
34.3118
 31
0.0
  0
LINE
  8
0
 62
     1
 10
223.599
 20
34.3118
 30
0.0
 11
219.136
 21
33.5993
 31
0.0
  0
LINE
  8
0
 62
     1
 10
219.136
 20
33.5993
 30
0.0
 11
213.599
 21
31.5281
 31
0.0
  0
LINE
  8
0
 62
     1
 10
213.599
 20
31.5281
 30
0.0
 11
208.704
 21
28.2126
 31
0.0
  0
LINE
  8
0
 62
     1
 10
208.704
 20
28.2126
 30
0.0
 11
205.54
 21
24.9838
 31
0.0
  0
LINE
  8
0
 62
     1
 10
205.54
 20
24.9838
 30
0.0
 11
204.681
 21
23.7684
 31
0.0
  0
LINE
  8
0
 62
     1
 10
245.752
 20
66.7978
 30
0.0
 11
246.487
 21
68.1246
 31
0.0
  0
LINE
  8
0
 62
     1
 10
246.487
 20
68.1246
 30
0.0
 11
249.052
 21
71.9046
 31
0.0
  0
LINE
  8
0
 62
     1
 10
249.052
 20
71.9046
 30
0.0
 11
252.953
 21
76.4589
 31
0.0
  0
LINE
  8
0
 62
     1
 10
252.953
 20
76.4589
 30
0.0
 11
257.387
 21
80.4224
 31
0.0
  0
LINE
  8
0
 62
     1
 10
257.387
 20
80.4224
 30
0.0
 11
262.285
 21
83.7544
 31
0.0
  0
LINE
  8
0
 62
     1
 10
262.285
 20
83.7544
 30
0.0
 11
267.579
 21
86.414
 31
0.0
  0
LINE
  8
0
 62
     1
 10
267.579
 20
86.414
 30
0.0
 11
273.199
 21
88.3613
 31
0.0
  0
LINE
  8
0
 62
     1
 10
273.199
 20
88.3613
 30
0.0
 11
279.076
 21
89.5544
 31
0.0
  0
LINE
  8
0
 62
     1
 10
279.076
 20
89.5544
 30
0.0
 11
283.626
 21
89.9555
 31
0.0
  0
LINE
  8
0
 62
     1
 10
283.626
 20
89.9555
 30
0.0
 11
285.144
 21
89.9527
 31
0.0
  0
LINE
  8
0
 62
     1
 10
285.144
 20
89.9527
 30
0.0
 11
286.659
 21
89.9513
 31
0.0
  0
LINE
  8
0
 62
     1
 10
286.659
 20
89.9513
 30
0.0
 11
291.209
 21
89.5325
 31
0.0
  0
LINE
  8
0
 62
     1
 10
291.209
 20
89.5325
 30
0.0
 11
297.082
 21
88.3186
 31
0.0
  0
LINE
  8
0
 62
     1
 10
297.082
 20
88.3186
 30
0.0
 11
302.694
 21
86.3519
 31
0.0
  0
LINE
  8
0
 62
     1
 10
302.694
 20
86.3519
 30
0.0
 11
307.979
 21
83.6732
 31
0.0
  0
LINE
  8
0
 62
     1
 10
307.979
 20
83.6732
 30
0.0
 11
312.866
 21
80.3243
 31
0.0
  0
LINE
  8
0
 62
     1
 10
312.866
 20
80.3243
 30
0.0
 11
317.285
 21
76.3446
 31
0.0
  0
LINE
  8
0
 62
     1
 10
317.285
 20
76.3446
 30
0.0
 11
321.17
 21
71.7765
 31
0.0
  0
LINE
  8
0
 62
     1
 10
321.17
 20
71.7765
 30
0.0
 11
323.722
 21
67.987
 31
0.0
  0
LINE
  8
0
 62
     1
 10
323.722
 20
67.987
 30
0.0
 11
324.452
 21
66.657
 31
0.0
  0
LINE
  8
0
 62
     1
 10
245.502
 20
23.6692
 30
0.0
 11
246.228
 21
22.3214
 31
0.0
  0
LINE
  8
0
 62
     1
 10
246.228
 20
22.3214
 30
0.0
 11
248.777
 21
18.4767
 31
0.0
  0
LINE
  8
0
 62
     1
 10
248.777
 20
18.4767
 30
0.0
 11
252.673
 21
13.8396
 31
0.0
  0
LINE
  8
0
 62
     1
 10
252.673
 20
13.8396
 30
0.0
 11
257.116
 21
9.80063
 31
0.0
  0
LINE
  8
0
 62
     1
 10
257.116
 20
9.80063
 30
0.0
 11
262.038
 21
6.40098
 31
0.0
  0
LINE
  8
0
 62
     1
 10
262.038
 20
6.40098
 30
0.0
 11
267.367
 21
3.68625
 31
0.0
  0
LINE
  8
0
 62
     1
 10
267.367
 20
3.68625
 30
0.0
 11
273.032
 21
1.69499
 31
0.0
  0
LINE
  8
0
 62
     1
 10
273.032
 20
1.69499
 30
0.0
 11
278.965
 21
0.47129
 31
0.0
  0
LINE
  8
0
 62
     1
 10
278.965
 20
0.47129
 30
0.0
 11
283.559
 21
0.0551215
 31
0.0
  0
LINE
  8
0
 62
     1
 10
283.559
 20
0.0551215
 30
0.0
 11
285.091
 21
0.0551215
 31
0.0
  0
LINE
  8
0
 62
     1
 10
285.091
 20
0.0551215
 30
0.0
 11
286.622
 21
0.0564995
 31
0.0
  0
LINE
  8
0
 62
     1
 10
286.622
 20
0.0564995
 30
0.0
 11
291.217
 21
0.47818
 31
0.0
  0
LINE
  8
0
 62
     1
 10
291.217
 20
0.47818
 30
0.0
 11
297.148
 21
1.71015
 31
0.0
  0
LINE
  8
0
 62
     1
 10
297.148
 20
1.71015
 30
0.0
 11
302.81
 21
3.70692
 31
0.0
  0
LINE
  8
0
 62
     1
 10
302.81
 20
3.70692
 30
0.0
 11
308.136
 21
6.42994
 31
0.0
  0
LINE
  8
0
 62
     1
 10
308.136
 20
6.42994
 30
0.0
 11
313.053
 21
9.83368
 31
0.0
  0
LINE
  8
0
 62
     1
 10
313.053
 20
9.83368
 30
0.0
 11
317.493
 21
13.8782
 31
0.0
  0
LINE
  8
0
 62
     1
 10
317.493
 20
13.8782
 30
0.0
 11
321.382
 21
18.5208
 31
0.0
  0
LINE
  8
0
 62
     1
 10
321.382
 20
18.5208
 30
0.0
 11
323.927
 21
22.3697
 31
0.0
  0
LINE
  8
0
 62
     1
 10
323.927
 20
22.3697
 30
0.0
 11
324.653
 21
23.7174
 31
0.0
  0
LINE
  8
0
 62
     1
 10
365.732
 20
66.7537
 30
0.0
 11
364.882
 21
65.5024
 31
0.0
  0
LINE
  8
0
 62
     1
 10
364.882
 20
65.5024
 30
0.0
 11
361.724
 21
62.1647
 31
0.0
  0
LINE
  8
0
 62
     1
 10
361.724
 20
62.1647
 30
0.0
 11
356.799
 21
58.7252
 31
0.0
  0
LINE
  8
0
 62
     1
 10
356.799
 20
58.7252
 30
0.0
 11
351.195
 21
56.5616
 31
0.0
  0
LINE
  8
0
 62
     1
 10
351.195
 20
56.5616
 30
0.0
 11
346.661
 21
55.8052
 31
0.0
  0
LINE
  8
0
 62
     1
 10
346.661
 20
55.8052
 30
0.0
 11
345.15
 21
55.801
 31
0.0
  0
LINE
  8
0
 62
     1
 10
345.15
 20
55.801
 30
0.0
 11
343.639
 21
55.7967
 31
0.0
  0
LINE
  8
0
 62
     1
 10
343.639
 20
55.7967
 30
0.0
 11
339.101
 21
56.5284
 31
0.0
  0
LINE
  8
0
 62
     1
 10
339.101
 20
56.5284
 30
0.0
 11
333.485
 21
58.6602
 31
0.0
  0
LINE
  8
0
 62
     1
 10
333.485
 20
58.6602
 30
0.0
 11
328.542
 21
62.0709
 31
0.0
  0
LINE
  8
0
 62
     1
 10
328.542
 20
62.0709
 30
0.0
 11
325.363
 21
65.3905
 31
0.0
  0
LINE
  8
0
 62
     1
 10
325.363
 20
65.3905
 30
0.0
 11
324.509
 21
66.6365
 31
0.0
  0
LINE
  8
0
 62
     1
 10
365.492
 20
23.7036
 30
0.0
 11
364.638
 21
24.9218
 31
0.0
  0
LINE
  8
0
 62
     1
 10
364.638
 20
24.9218
 30
0.0
 11
361.484
 21
28.1588
 31
0.0
  0
LINE
  8
0
 62
     1
 10
361.484
 20
28.1588
 30
0.0
 11
356.602
 21
31.4909
 31
0.0
  0
LINE
  8
0
 62
     1
 10
356.602
 20
31.4909
 30
0.0
 11
351.07
 21
33.5814
 31
0.0
  0
LINE
  8
0
 62
     1
 10
351.07
 20
33.5814
 30
0.0
 11
346.608
 21
34.309
 31
0.0
  0
LINE
  8
0
 62
     1
 10
346.608
 20
34.309
 30
0.0
 11
345.121
 21
34.3104
 31
0.0
  0
LINE
  8
0
 62
     1
 10
345.121
 20
34.3104
 30
0.0
 11
343.633
 21
34.3131
 31
0.0
  0
LINE
  8
0
 62
     1
 10
343.633
 20
34.3131
 30
0.0
 11
339.168
 21
33.6007
 31
0.0
  0
LINE
  8
0
 62
     1
 10
339.168
 20
33.6007
 30
0.0
 11
333.631
 21
31.5281
 31
0.0
  0
LINE
  8
0
 62
     1
 10
333.631
 20
31.5281
 30
0.0
 11
328.738
 21
28.2126
 31
0.0
  0
LINE
  8
0
 62
     1
 10
328.738
 20
28.2126
 30
0.0
 11
325.573
 21
24.9852
 31
0.0
  0
LINE
  8
0
 62
     1
 10
325.573
 20
24.9852
 30
0.0
 11
324.714
 21
23.7698
 31
0.0
  0
LINE
  8
0
 62
     1
 10
365.534
 20
23.6706
 30
0.0
 11
366.43
 21
22.0073
 31
0.0
  0
LINE
  8
0
 62
     1
 10
366.43
 20
22.0073
 30
0.0
 11
369.683
 21
17.3192
 31
0.0
  0
LINE
  8
0
 62
     1
 10
369.683
 20
17.3192
 30
0.0
 11
374.724
 21
11.8649
 31
0.0
  0
LINE
  8
0
 62
     1
 10
374.724
 20
11.8649
 30
0.0
 11
380.52
 21
7.36699
 31
0.0
  0
LINE
  8
0
 62
     1
 10
380.52
 20
7.36699
 30
0.0
 11
386.937
 21
3.88881
 31
0.0
  0
LINE
  8
0
 62
     1
 10
386.937
 20
3.88881
 30
0.0
 11
393.827
 21
1.49104
 31
0.0
  0
LINE
  8
0
 62
     1
 10
393.827
 20
1.49104
 30
0.0
 11
401.055
 21
0.234267
 31
0.0
  0
LINE
  8
0
 62
     1
 10
401.055
 20
0.234267
 30
0.0
 11
408.485
 21
0.180523
 31
0.0
  0
LINE
  8
0
 62
     1
 10
408.485
 20
0.180523
 30
0.0
 11
414.14
 21
0.935687
 31
0.0
  0
LINE
  8
0
 62
     1
 10
414.14
 20
0.935687
 30
0.0
 11
415.974
 21
1.39182
 31
0.0
  0
LINE
  8
0
 62
     1
 10
415.974
 20
1.39182
 30
0.0
 11
417.809
 21
1.84933
 31
0.0
  0
LINE
  8
0
 62
     1
 10
417.809
 20
1.84933
 30
0.0
 11
423.153
 21
3.83921
 31
0.0
  0
LINE
  8
0
 62
     1
 10
423.153
 20
3.83921
 30
0.0
 11
429.687
 21
7.37528
 31
0.0
  0
LINE
  8
0
 62
     1
 10
429.687
 20
7.37528
 30
0.0
 11
435.479
 21
11.8787
 31
0.0
  0
LINE
  8
0
 62
     1
 10
435.479
 20
11.8787
 30
0.0
 11
440.44
 21
17.231
 31
0.0
  0
LINE
  8
0
 62
     1
 10
440.44
 20
17.231
 30
0.0
 11
444.468
 21
23.3136
 31
0.0
  0
LINE
  8
0
 62
     1
 10
444.468
 20
23.3136
 30
0.0
 11
447.474
 21
30.0068
 31
0.0
  0
LINE
  8
0
 62
     1
 10
447.474
 20
30.0068
 30
0.0
 11
449.365
 21
37.1905
 31
0.0
  0
LINE
  8
0
 62
     1
 10
449.365
 20
37.1905
 30
0.0
 11
450.035
 21
42.8569
 31
0.0
  0
LINE
  8
0
 62
     1
 10
450.035
 20
42.8569
 30
0.0
 11
450.046
 21
44.7463
 31
0.0
  0
LINE
  8
0
 62
     1
 10
450.046
 20
44.7463
 30
0.0
 11
450.056
 21
46.6369
 31
0.0
  0
LINE
  8
0
 62
     1
 10
450.056
 20
46.6369
 30
0.0
 11
449.453
 21
52.3102
 31
0.0
  0
LINE
  8
0
 62
     1
 10
449.453
 20
52.3102
 30
0.0
 11
447.643
 21
59.5147
 31
0.0
  0
LINE
  8
0
 62
     1
 10
447.643
 20
59.5147
 30
0.0
 11
444.715
 21
66.2421
 31
0.0
  0
LINE
  8
0
 62
     1
 10
444.715
 20
66.2421
 30
0.0
 11
440.754
 21
72.3706
 31
0.0
  0
LINE
  8
0
 62
     1
 10
440.754
 20
72.3706
 30
0.0
 11
435.857
 21
77.7804
 31
0.0
  0
LINE
  8
0
 62
     1
 10
435.857
 20
77.7804
 30
0.0
 11
430.117
 21
82.3503
 31
0.0
  0
LINE
  8
0
 62
     1
 10
430.117
 20
82.3503
 30
0.0
 11
423.626
 21
85.9607
 31
0.0
  0
LINE
  8
0
 62
     1
 10
423.626
 20
85.9607
 30
0.0
 11
418.299
 21
88.011
 31
0.0
  0
LINE
  8
0
 62
     1
 10
418.299
 20
88.011
 30
0.0
 11
416.472
 21
88.4894
 31
0.0
  0
LINE
  8
0
 62
     1
 10
416.472
 20
88.4894
 30
0.0
 11
414.644
 21
88.9674
 31
0.0
  0
LINE
  8
0
 62
     1
 10
414.644
 20
88.9674
 30
0.0
 11
408.996
 21
89.7876
 31
0.0
  0
LINE
  8
0
 62
     1
 10
408.996
 20
89.7876
 30
0.0
 11
401.57
 21
89.819
 31
0.0
  0
LINE
  8
0
 62
     1
 10
401.57
 20
89.819
 30
0.0
 11
394.328
 21
88.6449
 31
0.0
  0
LINE
  8
0
 62
     1
 10
394.328
 20
88.6449
 30
0.0
 11
387.41
 21
86.3272
 31
0.0
  0
LINE
  8
0
 62
     1
 10
387.41
 20
86.3272
 30
0.0
 11
380.958
 21
82.9222
 31
0.0
  0
LINE
  8
0
 62
     1
 10
380.958
 20
82.9222
 30
0.0
 11
375.109
 21
78.4916
 31
0.0
  0
LINE
  8
0
 62
     1
 10
375.109
 20
78.4916
 30
0.0
 11
370.004
 21
73.0938
 31
0.0
  0
LINE
  8
0
 62
     1
 10
370.004
 20
73.0938
 30
0.0
 11
366.698
 21
68.4431
 31
0.0
  0
LINE
  8
0
 62
     1
 10
366.698
 20
68.4431
 30
0.0
 11
365.781
 21
66.7893
 31
0.0
  0
LINE
  8
0
 62
     1
 10
416.073
 20
45.0275
 30
0.0
 11
416.073
 21
45.5828
 31
0.0
  0
LINE
  8
0
 62
     1
 10
416.073
 20
45.5828
 30
0.0
 11
415.847
 21
47.2447
 31
0.0
  0
LINE
  8
0
 62
     1
 10
415.847
 20
47.2447
 30
0.0
 11
415.205
 21
49.3102
 31
0.0
  0
LINE
  8
0
 62
     1
 10
415.205
 20
49.3102
 30
0.0
 11
414.193
 21
51.1789
 31
0.0
  0
LINE
  8
0
 62
     1
 10
414.193
 20
51.1789
 30
0.0
 11
412.852
 21
52.8066
 31
0.0
  0
LINE
  8
0
 62
     1
 10
412.852
 20
52.8066
 30
0.0
 11
411.222
 21
54.15
 31
0.0
  0
LINE
  8
0
 62
     1
 10
411.222
 20
54.15
 30
0.0
 11
409.353
 21
55.1642
 31
0.0
  0
LINE
  8
0
 62
     1
 10
409.353
 20
55.1642
 30
0.0
 11
407.289
 21
55.8052
 31
0.0
  0
LINE
  8
0
 62
     1
 10
407.289
 20
55.8052
 30
0.0
 11
405.627
 21
56.0282
 31
0.0
  0
LINE
  8
0
 62
     1
 10
405.627
 20
56.0282
 30
0.0
 11
405.074
 21
56.0282
 31
0.0
  0
LINE
  8
0
 62
     1
 10
405.074
 20
56.0282
 30
0.0
 11
404.516
 21
56.0282
 31
0.0
  0
LINE
  8
0
 62
     1
 10
404.516
 20
56.0282
 30
0.0
 11
402.855
 21
55.8052
 31
0.0
  0
LINE
  8
0
 62
     1
 10
402.855
 20
55.8052
 30
0.0
 11
400.791
 21
55.1642
 31
0.0
  0
LINE
  8
0
 62
     1
 10
400.791
 20
55.1642
 30
0.0
 11
398.921
 21
54.15
 31
0.0
  0
LINE
  8
0
 62
     1
 10
398.921
 20
54.15
 30
0.0
 11
397.295
 21
52.8066
 31
0.0
  0
LINE
  8
0
 62
     1
 10
397.295
 20
52.8066
 30
0.0
 11
395.951
 21
51.1789
 31
0.0
  0
LINE
  8
0
 62
     1
 10
395.951
 20
51.1789
 30
0.0
 11
394.935
 21
49.3102
 31
0.0
  0
LINE
  8
0
 62
     1
 10
394.935
 20
49.3102
 30
0.0
 11
394.296
 21
47.2447
 31
0.0
  0
LINE
  8
0
 62
     1
 10
394.296
 20
47.2447
 30
0.0
 11
394.07
 21
45.5828
 31
0.0
  0
LINE
  8
0
 62
     1
 10
394.07
 20
45.5828
 30
0.0
 11
394.07
 21
45.0275
 31
0.0
  0
LINE
  8
0
 62
     1
 10
394.07
 20
45.0275
 30
0.0
 11
394.07
 21
44.4733
 31
0.0
  0
LINE
  8
0
 62
     1
 10
394.07
 20
44.4733
 30
0.0
 11
394.296
 21
42.8113
 31
0.0
  0
LINE
  8
0
 62
     1
 10
394.296
 20
42.8113
 30
0.0
 11
394.935
 21
40.7472
 31
0.0
  0
LINE
  8
0
 62
     1
 10
394.935
 20
40.7472
 30
0.0
 11
395.951
 21
38.8786
 31
0.0
  0
LINE
  8
0
 62
     1
 10
395.951
 20
38.8786
 30
0.0
 11
397.295
 21
37.2498
 31
0.0
  0
LINE
  8
0
 62
     1
 10
397.295
 20
37.2498
 30
0.0
 11
398.921
 21
35.9061
 31
0.0
  0
LINE
  8
0
 62
     1
 10
398.921
 20
35.9061
 30
0.0
 11
400.791
 21
34.8919
 31
0.0
  0
LINE
  8
0
 62
     1
 10
400.791
 20
34.8919
 30
0.0
 11
402.855
 21
34.2511
 31
0.0
  0
LINE
  8
0
 62
     1
 10
402.855
 20
34.2511
 30
0.0
 11
404.516
 21
34.0265
 31
0.0
  0
LINE
  8
0
 62
     1
 10
404.516
 20
34.0265
 30
0.0
 11
405.074
 21
34.0265
 31
0.0
  0
LINE
  8
0
 62
     1
 10
405.074
 20
34.0265
 30
0.0
 11
405.627
 21
34.0265
 31
0.0
  0
LINE
  8
0
 62
     1
 10
405.627
 20
34.0265
 30
0.0
 11
407.289
 21
34.2511
 31
0.0
  0
LINE
  8
0
 62
     1
 10
407.289
 20
34.2511
 30
0.0
 11
409.353
 21
34.8919
 31
0.0
  0
LINE
  8
0
 62
     1
 10
409.353
 20
34.8919
 30
0.0
 11
411.222
 21
35.9061
 31
0.0
  0
LINE
  8
0
 62
     1
 10
411.222
 20
35.9061
 30
0.0
 11
412.852
 21
37.2498
 31
0.0
  0
LINE
  8
0
 62
     1
 10
412.852
 20
37.2498
 30
0.0
 11
414.193
 21
38.8786
 31
0.0
  0
LINE
  8
0
 62
     1
 10
414.193
 20
38.8786
 30
0.0
 11
415.205
 21
40.7472
 31
0.0
  0
LINE
  8
0
 62
     1
 10
415.205
 20
40.7472
 30
0.0
 11
415.847
 21
42.8113
 31
0.0
  0
LINE
  8
0
 62
     1
 10
415.847
 20
42.8113
 30
0.0
 11
416.073
 21
44.4733
 31
0.0
  0
LINE
  8
0
 62
     1
 10
416.073
 20
44.4733
 30
0.0
 11
416.073
 21
45.0275
 31
0.0
  0
LINE
  8
0
 62
     1
 10
393.622
 20
57.9783
 30
0.0
 11
393.622
 21
57.8323
 31
0.0
  0
LINE
  8
0
 62
     1
 10
393.622
 20
57.8323
 30
0.0
 11
393.506
 21
57.3938
 31
0.0
  0
LINE
  8
0
 62
     1
 10
393.506
 20
57.3938
 30
0.0
 11
393.181
 21
56.9172
 31
0.0
  0
LINE
  8
0
 62
     1
 10
393.181
 20
56.9172
 30
0.0
 11
392.705
 21
56.5961
 31
0.0
  0
LINE
  8
0
 62
     1
 10
392.705
 20
56.5961
 30
0.0
 11
392.268
 21
56.4776
 31
0.0
  0
LINE
  8
0
 62
     1
 10
392.268
 20
56.4776
 30
0.0
 11
392.123
 21
56.4776
 31
0.0
  0
LINE
  8
0
 62
     1
 10
392.123
 20
56.4776
 30
0.0
 11
391.975
 21
56.4776
 31
0.0
  0
LINE
  8
0
 62
     1
 10
391.975
 20
56.4776
 30
0.0
 11
391.537
 21
56.5961
 31
0.0
  0
LINE
  8
0
 62
     1
 10
391.537
 20
56.5961
 30
0.0
 11
391.061
 21
56.9172
 31
0.0
  0
LINE
  8
0
 62
     1
 10
391.061
 20
56.9172
 30
0.0
 11
390.74
 21
57.3938
 31
0.0
  0
LINE
  8
0
 62
     1
 10
390.74
 20
57.3938
 30
0.0
 11
390.624
 21
57.8323
 31
0.0
  0
LINE
  8
0
 62
     1
 10
390.624
 20
57.8323
 30
0.0
 11
390.624
 21
57.9783
 31
0.0
  0
LINE
  8
0
 62
     1
 10
390.624
 20
57.9783
 30
0.0
 11
390.624
 21
58.1244
 31
0.0
  0
LINE
  8
0
 62
     1
 10
390.624
 20
58.1244
 30
0.0
 11
390.74
 21
58.5625
 31
0.0
  0
LINE
  8
0
 62
     1
 10
390.74
 20
58.5625
 30
0.0
 11
391.061
 21
59.0391
 31
0.0
  0
LINE
  8
0
 62
     1
 10
391.061
 20
59.0391
 30
0.0
 11
391.537
 21
59.3605
 31
0.0
  0
LINE
  8
0
 62
     1
 10
391.537
 20
59.3605
 30
0.0
 11
391.975
 21
59.4776
 31
0.0
  0
LINE
  8
0
 62
     1
 10
391.975
 20
59.4776
 30
0.0
 11
392.123
 21
59.4776
 31
0.0
  0
LINE
  8
0
 62
     1
 10
392.123
 20
59.4776
 30
0.0
 11
392.268
 21
59.4776
 31
0.0
  0
LINE
  8
0
 62
     1
 10
392.268
 20
59.4776
 30
0.0
 11
392.705
 21
59.3605
 31
0.0
  0
LINE
  8
0
 62
     1
 10
392.705
 20
59.3605
 30
0.0
 11
393.181
 21
59.0391
 31
0.0
  0
LINE
  8
0
 62
     1
 10
393.181
 20
59.0391
 30
0.0
 11
393.506
 21
58.5625
 31
0.0
  0
LINE
  8
0
 62
     1
 10
393.506
 20
58.5625
 30
0.0
 11
393.622
 21
58.1244
 31
0.0
  0
LINE
  8
0
 62
     1
 10
393.622
 20
58.1244
 30
0.0
 11
393.622
 21
57.9783
 31
0.0
  0
LINE
  8
0
 62
     1
 10
393.622
 20
32.078
 30
0.0
 11
393.622
 21
31.9319
 31
0.0
  0
LINE
  8
0
 62
     1
 10
393.622
 20
31.9319
 30
0.0
 11
393.506
 21
31.4937
 31
0.0
  0
LINE
  8
0
 62
     1
 10
393.506
 20
31.4937
 30
0.0
 11
393.181
 21
31.0169
 31
0.0
  0
LINE
  8
0
 62
     1
 10
393.181
 20
31.0169
 30
0.0
 11
392.705
 21
30.6958
 31
0.0
  0
LINE
  8
0
 62
     1
 10
392.705
 20
30.6958
 30
0.0
 11
392.268
 21
30.5773
 31
0.0
  0
LINE
  8
0
 62
     1
 10
392.268
 20
30.5773
 30
0.0
 11
392.123
 21
30.5773
 31
0.0
  0
LINE
  8
0
 62
     1
 10
392.123
 20
30.5773
 30
0.0
 11
391.975
 21
30.5773
 31
0.0
  0
LINE
  8
0
 62
     1
 10
391.975
 20
30.5773
 30
0.0
 11
391.537
 21
30.6958
 31
0.0
  0
LINE
  8
0
 62
     1
 10
391.537
 20
30.6958
 30
0.0
 11
391.061
 21
31.0169
 31
0.0
  0
LINE
  8
0
 62
     1
 10
391.061
 20
31.0169
 30
0.0
 11
390.74
 21
31.4937
 31
0.0
  0
LINE
  8
0
 62
     1
 10
390.74
 20
31.4937
 30
0.0
 11
390.624
 21
31.9319
 31
0.0
  0
LINE
  8
0
 62
     1
 10
390.624
 20
31.9319
 30
0.0
 11
390.624
 21
32.078
 31
0.0
  0
LINE
  8
0
 62
     1
 10
390.624
 20
32.078
 30
0.0
 11
390.624
 21
32.2241
 31
0.0
  0
LINE
  8
0
 62
     1
 10
390.624
 20
32.2241
 30
0.0
 11
390.74
 21
32.6622
 31
0.0
  0
LINE
  8
0
 62
     1
 10
390.74
 20
32.6622
 30
0.0
 11
391.061
 21
33.1391
 31
0.0
  0
LINE
  8
0
 62
     1
 10
391.061
 20
33.1391
 30
0.0
 11
391.537
 21
33.4602
 31
0.0
  0
LINE
  8
0
 62
     1
 10
391.537
 20
33.4602
 30
0.0
 11
391.975
 21
33.5773
 31
0.0
  0
LINE
  8
0
 62
     1
 10
391.975
 20
33.5773
 30
0.0
 11
392.123
 21
33.5773
 31
0.0
  0
LINE
  8
0
 62
     1
 10
392.123
 20
33.5773
 30
0.0
 11
392.268
 21
33.5773
 31
0.0
  0
LINE
  8
0
 62
     1
 10
392.268
 20
33.5773
 30
0.0
 11
392.705
 21
33.4602
 31
0.0
  0
LINE
  8
0
 62
     1
 10
392.705
 20
33.4602
 30
0.0
 11
393.181
 21
33.1391
 31
0.0
  0
LINE
  8
0
 62
     1
 10
393.181
 20
33.1391
 30
0.0
 11
393.506
 21
32.6622
 31
0.0
  0
LINE
  8
0
 62
     1
 10
393.506
 20
32.6622
 30
0.0
 11
393.622
 21
32.2241
 31
0.0
  0
LINE
  8
0
 62
     1
 10
393.622
 20
32.2241
 30
0.0
 11
393.622
 21
32.078
 31
0.0
  0
LINE
  8
0
 62
     1
 10
419.523
 20
57.9783
 30
0.0
 11
419.523
 21
57.8323
 31
0.0
  0
LINE
  8
0
 62
     1
 10
419.523
 20
57.8323
 30
0.0
 11
419.403
 21
57.3938
 31
0.0
  0
LINE
  8
0
 62
     1
 10
419.403
 20
57.3938
 30
0.0
 11
419.082
 21
56.9172
 31
0.0
  0
LINE
  8
0
 62
     1
 10
419.082
 20
56.9172
 30
0.0
 11
418.606
 21
56.5961
 31
0.0
  0
LINE
  8
0
 62
     1
 10
418.606
 20
56.5961
 30
0.0
 11
418.169
 21
56.4776
 31
0.0
  0
LINE
  8
0
 62
     1
 10
418.169
 20
56.4776
 30
0.0
 11
418.024
 21
56.4776
 31
0.0
  0
LINE
  8
0
 62
     1
 10
418.024
 20
56.4776
 30
0.0
 11
417.876
 21
56.4776
 31
0.0
  0
LINE
  8
0
 62
     1
 10
417.876
 20
56.4776
 30
0.0
 11
417.438
 21
56.5961
 31
0.0
  0
LINE
  8
0
 62
     1
 10
417.438
 20
56.5961
 30
0.0
 11
416.962
 21
56.9172
 31
0.0
  0
LINE
  8
0
 62
     1
 10
416.962
 20
56.9172
 30
0.0
 11
416.641
 21
57.3938
 31
0.0
  0
LINE
  8
0
 62
     1
 10
416.641
 20
57.3938
 30
0.0
 11
416.525
 21
57.8323
 31
0.0
  0
LINE
  8
0
 62
     1
 10
416.525
 20
57.8323
 30
0.0
 11
416.525
 21
57.9783
 31
0.0
  0
LINE
  8
0
 62
     1
 10
416.525
 20
57.9783
 30
0.0
 11
416.525
 21
58.1244
 31
0.0
  0
LINE
  8
0
 62
     1
 10
416.525
 20
58.1244
 30
0.0
 11
416.641
 21
58.5625
 31
0.0
  0
LINE
  8
0
 62
     1
 10
416.641
 20
58.5625
 30
0.0
 11
416.962
 21
59.0391
 31
0.0
  0
LINE
  8
0
 62
     1
 10
416.962
 20
59.0391
 30
0.0
 11
417.438
 21
59.3605
 31
0.0
  0
LINE
  8
0
 62
     1
 10
417.438
 20
59.3605
 30
0.0
 11
417.876
 21
59.4776
 31
0.0
  0
LINE
  8
0
 62
     1
 10
417.876
 20
59.4776
 30
0.0
 11
418.024
 21
59.4776
 31
0.0
  0
LINE
  8
0
 62
     1
 10
418.024
 20
59.4776
 30
0.0
 11
418.169
 21
59.4776
 31
0.0
  0
LINE
  8
0
 62
     1
 10
418.169
 20
59.4776
 30
0.0
 11
418.606
 21
59.3605
 31
0.0
  0
LINE
  8
0
 62
     1
 10
418.606
 20
59.3605
 30
0.0
 11
419.082
 21
59.0391
 31
0.0
  0
LINE
  8
0
 62
     1
 10
419.082
 20
59.0391
 30
0.0
 11
419.403
 21
58.5625
 31
0.0
  0
LINE
  8
0
 62
     1
 10
419.403
 20
58.5625
 30
0.0
 11
419.523
 21
58.1244
 31
0.0
  0
LINE
  8
0
 62
     1
 10
419.523
 20
58.1244
 30
0.0
 11
419.523
 21
57.9783
 31
0.0
  0
LINE
  8
0
 62
     1
 10
419.573
 20
32.027
 30
0.0
 11
419.573
 21
31.8823
 31
0.0
  0
LINE
  8
0
 62
     1
 10
419.573
 20
31.8823
 30
0.0
 11
419.453
 21
31.4441
 31
0.0
  0
LINE
  8
0
 62
     1
 10
419.453
 20
31.4441
 30
0.0
 11
419.132
 21
30.9673
 31
0.0
  0
LINE
  8
0
 62
     1
 10
419.132
 20
30.9673
 30
0.0
 11
418.655
 21
30.6448
 31
0.0
  0
LINE
  8
0
 62
     1
 10
418.655
 20
30.6448
 30
0.0
 11
418.218
 21
30.5263
 31
0.0
  0
LINE
  8
0
 62
     1
 10
418.218
 20
30.5263
 30
0.0
 11
418.073
 21
30.5263
 31
0.0
  0
LINE
  8
0
 62
     1
 10
418.073
 20
30.5263
 30
0.0
 11
417.925
 21
30.5263
 31
0.0
  0
LINE
  8
0
 62
     1
 10
417.925
 20
30.5263
 30
0.0
 11
417.488
 21
30.6448
 31
0.0
  0
LINE
  8
0
 62
     1
 10
417.488
 20
30.6448
 30
0.0
 11
417.012
 21
30.9673
 31
0.0
  0
LINE
  8
0
 62
     1
 10
417.012
 20
30.9673
 30
0.0
 11
416.691
 21
31.4441
 31
0.0
  0
LINE
  8
0
 62
     1
 10
416.691
 20
31.4441
 30
0.0
 11
416.574
 21
31.8823
 31
0.0
  0
LINE
  8
0
 62
     1
 10
416.574
 20
31.8823
 30
0.0
 11
416.574
 21
32.027
 31
0.0
  0
LINE
  8
0
 62
     1
 10
416.574
 20
32.027
 30
0.0
 11
416.574
 21
32.1731
 31
0.0
  0
LINE
  8
0
 62
     1
 10
416.574
 20
32.1731
 30
0.0
 11
416.691
 21
32.6113
 31
0.0
  0
LINE
  8
0
 62
     1
 10
416.691
 20
32.6113
 30
0.0
 11
417.012
 21
33.0881
 31
0.0
  0
LINE
  8
0
 62
     1
 10
417.012
 20
33.0881
 30
0.0
 11
417.488
 21
33.4092
 31
0.0
  0
LINE
  8
0
 62
     1
 10
417.488
 20
33.4092
 30
0.0
 11
417.925
 21
33.5263
 31
0.0
  0
LINE
  8
0
 62
     1
 10
417.925
 20
33.5263
 30
0.0
 11
418.073
 21
33.5263
 31
0.0
  0
LINE
  8
0
 62
     1
 10
418.073
 20
33.5263
 30
0.0
 11
418.218
 21
33.5263
 31
0.0
  0
LINE
  8
0
 62
     1
 10
418.218
 20
33.5263
 30
0.0
 11
418.655
 21
33.4092
 31
0.0
  0
LINE
  8
0
 62
     1
 10
418.655
 20
33.4092
 30
0.0
 11
419.132
 21
33.0881
 31
0.0
  0
LINE
  8
0
 62
     1
 10
419.132
 20
33.0881
 30
0.0
 11
419.453
 21
32.6113
 31
0.0
  0
LINE
  8
0
 62
     1
 10
419.453
 20
32.6113
 30
0.0
 11
419.573
 21
32.1731
 31
0.0
  0
LINE
  8
0
 62
     1
 10
419.573
 20
32.1731
 30
0.0
 11
419.573
 21
32.027
 31
0.0
  0
LINE
  8
0
 62
     1
 10
296.04
 20
45.0275
 30
0.0
 11
296.04
 21
45.5828
 31
0.0
  0
LINE
  8
0
 62
     1
 10
296.04
 20
45.5828
 30
0.0
 11
295.815
 21
47.2447
 31
0.0
  0
LINE
  8
0
 62
     1
 10
295.815
 20
47.2447
 30
0.0
 11
295.174
 21
49.3102
 31
0.0
  0
LINE
  8
0
 62
     1
 10
295.174
 20
49.3102
 30
0.0
 11
294.16
 21
51.1789
 31
0.0
  0
LINE
  8
0
 62
     1
 10
294.16
 20
51.1789
 30
0.0
 11
292.816
 21
52.8066
 31
0.0
  0
LINE
  8
0
 62
     1
 10
292.816
 20
52.8066
 30
0.0
 11
291.189
 21
54.15
 31
0.0
  0
LINE
  8
0
 62
     1
 10
291.189
 20
54.15
 30
0.0
 11
289.32
 21
55.1642
 31
0.0
  0
LINE
  8
0
 62
     1
 10
289.32
 20
55.1642
 30
0.0
 11
287.255
 21
55.8052
 31
0.0
  0
LINE
  8
0
 62
     1
 10
287.255
 20
55.8052
 30
0.0
 11
285.593
 21
56.0282
 31
0.0
  0
LINE
  8
0
 62
     1
 10
285.593
 20
56.0282
 30
0.0
 11
285.039
 21
56.0282
 31
0.0
  0
LINE
  8
0
 62
     1
 10
285.039
 20
56.0282
 30
0.0
 11
284.484
 21
56.0282
 31
0.0
  0
LINE
  8
0
 62
     1
 10
284.484
 20
56.0282
 30
0.0
 11
282.822
 21
55.8052
 31
0.0
  0
LINE
  8
0
 62
     1
 10
282.822
 20
55.8052
 30
0.0
 11
280.757
 21
55.1642
 31
0.0
  0
LINE
  8
0
 62
     1
 10
280.757
 20
55.1642
 30
0.0
 11
278.889
 21
54.15
 31
0.0
  0
LINE
  8
0
 62
     1
 10
278.889
 20
54.15
 30
0.0
 11
277.261
 21
52.8066
 31
0.0
  0
LINE
  8
0
 62
     1
 10
277.261
 20
52.8066
 30
0.0
 11
275.918
 21
51.1789
 31
0.0
  0
LINE
  8
0
 62
     1
 10
275.918
 20
51.1789
 30
0.0
 11
274.904
 21
49.3102
 31
0.0
  0
LINE
  8
0
 62
     1
 10
274.904
 20
49.3102
 30
0.0
 11
274.263
 21
47.2447
 31
0.0
  0
LINE
  8
0
 62
     1
 10
274.263
 20
47.2447
 30
0.0
 11
274.04
 21
45.5828
 31
0.0
  0
LINE
  8
0
 62
     1
 10
274.04
 20
45.5828
 30
0.0
 11
274.04
 21
45.0275
 31
0.0
  0
LINE
  8
0
 62
     1
 10
274.04
 20
45.0275
 30
0.0
 11
274.04
 21
44.4733
 31
0.0
  0
LINE
  8
0
 62
     1
 10
274.04
 20
44.4733
 30
0.0
 11
274.263
 21
42.8113
 31
0.0
  0
LINE
  8
0
 62
     1
 10
274.263
 20
42.8113
 30
0.0
 11
274.904
 21
40.7472
 31
0.0
  0
LINE
  8
0
 62
     1
 10
274.904
 20
40.7472
 30
0.0
 11
275.918
 21
38.8786
 31
0.0
  0
LINE
  8
0
 62
     1
 10
275.918
 20
38.8786
 30
0.0
 11
277.261
 21
37.2498
 31
0.0
  0
LINE
  8
0
 62
     1
 10
277.261
 20
37.2498
 30
0.0
 11
278.889
 21
35.9061
 31
0.0
  0
LINE
  8
0
 62
     1
 10
278.889
 20
35.9061
 30
0.0
 11
280.757
 21
34.8919
 31
0.0
  0
LINE
  8
0
 62
     1
 10
280.757
 20
34.8919
 30
0.0
 11
282.822
 21
34.2511
 31
0.0
  0
LINE
  8
0
 62
     1
 10
282.822
 20
34.2511
 30
0.0
 11
284.484
 21
34.0265
 31
0.0
  0
LINE
  8
0
 62
     1
 10
284.484
 20
34.0265
 30
0.0
 11
285.039
 21
34.0265
 31
0.0
  0
LINE
  8
0
 62
     1
 10
285.039
 20
34.0265
 30
0.0
 11
285.593
 21
34.0265
 31
0.0
  0
LINE
  8
0
 62
     1
 10
285.593
 20
34.0265
 30
0.0
 11
287.255
 21
34.2511
 31
0.0
  0
LINE
  8
0
 62
     1
 10
287.255
 20
34.2511
 30
0.0
 11
289.32
 21
34.8919
 31
0.0
  0
LINE
  8
0
 62
     1
 10
289.32
 20
34.8919
 30
0.0
 11
291.189
 21
35.9061
 31
0.0
  0
LINE
  8
0
 62
     1
 10
291.189
 20
35.9061
 30
0.0
 11
292.816
 21
37.2498
 31
0.0
  0
LINE
  8
0
 62
     1
 10
292.816
 20
37.2498
 30
0.0
 11
294.16
 21
38.8786
 31
0.0
  0
LINE
  8
0
 62
     1
 10
294.16
 20
38.8786
 30
0.0
 11
295.174
 21
40.7472
 31
0.0
  0
LINE
  8
0
 62
     1
 10
295.174
 20
40.7472
 30
0.0
 11
295.815
 21
42.8113
 31
0.0
  0
LINE
  8
0
 62
     1
 10
295.815
 20
42.8113
 30
0.0
 11
296.04
 21
44.4733
 31
0.0
  0
LINE
  8
0
 62
     1
 10
296.04
 20
44.4733
 30
0.0
 11
296.04
 21
45.0275
 31
0.0
  0
LINE
  8
0
 62
     1
 10
273.589
 20
57.9783
 30
0.0
 11
273.589
 21
57.8323
 31
0.0
  0
LINE
  8
0
 62
     1
 10
273.589
 20
57.8323
 30
0.0
 11
273.47
 21
57.3938
 31
0.0
  0
LINE
  8
0
 62
     1
 10
273.47
 20
57.3938
 30
0.0
 11
273.149
 21
56.9172
 31
0.0
  0
LINE
  8
0
 62
     1
 10
273.149
 20
56.9172
 30
0.0
 11
272.673
 21
56.5961
 31
0.0
  0
LINE
  8
0
 62
     1
 10
272.673
 20
56.5961
 30
0.0
 11
272.234
 21
56.4776
 31
0.0
  0
LINE
  8
0
 62
     1
 10
272.234
 20
56.4776
 30
0.0
 11
272.089
 21
56.4776
 31
0.0
  0
LINE
  8
0
 62
     1
 10
272.089
 20
56.4776
 30
0.0
 11
271.943
 21
56.4776
 31
0.0
  0
LINE
  8
0
 62
     1
 10
271.943
 20
56.4776
 30
0.0
 11
271.505
 21
56.5961
 31
0.0
  0
LINE
  8
0
 62
     1
 10
271.505
 20
56.5961
 30
0.0
 11
271.029
 21
56.9172
 31
0.0
  0
LINE
  8
0
 62
     1
 10
271.029
 20
56.9172
 30
0.0
 11
270.706
 21
57.3938
 31
0.0
  0
LINE
  8
0
 62
     1
 10
270.706
 20
57.3938
 30
0.0
 11
270.589
 21
57.8323
 31
0.0
  0
LINE
  8
0
 62
     1
 10
270.589
 20
57.8323
 30
0.0
 11
270.589
 21
57.9783
 31
0.0
  0
LINE
  8
0
 62
     1
 10
270.589
 20
57.9783
 30
0.0
 11
270.589
 21
58.1244
 31
0.0
  0
LINE
  8
0
 62
     1
 10
270.589
 20
58.1244
 30
0.0
 11
270.706
 21
58.5625
 31
0.0
  0
LINE
  8
0
 62
     1
 10
270.706
 20
58.5625
 30
0.0
 11
271.029
 21
59.0391
 31
0.0
  0
LINE
  8
0
 62
     1
 10
271.029
 20
59.0391
 30
0.0
 11
271.505
 21
59.3605
 31
0.0
  0
LINE
  8
0
 62
     1
 10
271.505
 20
59.3605
 30
0.0
 11
271.943
 21
59.4776
 31
0.0
  0
LINE
  8
0
 62
     1
 10
271.943
 20
59.4776
 30
0.0
 11
272.089
 21
59.4776
 31
0.0
  0
LINE
  8
0
 62
     1
 10
272.089
 20
59.4776
 30
0.0
 11
272.234
 21
59.4776
 31
0.0
  0
LINE
  8
0
 62
     1
 10
272.234
 20
59.4776
 30
0.0
 11
272.673
 21
59.3605
 31
0.0
  0
LINE
  8
0
 62
     1
 10
272.673
 20
59.3605
 30
0.0
 11
273.149
 21
59.0391
 31
0.0
  0
LINE
  8
0
 62
     1
 10
273.149
 20
59.0391
 30
0.0
 11
273.47
 21
58.5625
 31
0.0
  0
LINE
  8
0
 62
     1
 10
273.47
 20
58.5625
 30
0.0
 11
273.589
 21
58.1244
 31
0.0
  0
LINE
  8
0
 62
     1
 10
273.589
 20
58.1244
 30
0.0
 11
273.589
 21
57.9783
 31
0.0
  0
LINE
  8
0
 62
     1
 10
273.589
 20
32.078
 30
0.0
 11
273.589
 21
31.9319
 31
0.0
  0
LINE
  8
0
 62
     1
 10
273.589
 20
31.9319
 30
0.0
 11
273.47
 21
31.4937
 31
0.0
  0
LINE
  8
0
 62
     1
 10
273.47
 20
31.4937
 30
0.0
 11
273.149
 21
31.0169
 31
0.0
  0
LINE
  8
0
 62
     1
 10
273.149
 20
31.0169
 30
0.0
 11
272.673
 21
30.6958
 31
0.0
  0
LINE
  8
0
 62
     1
 10
272.673
 20
30.6958
 30
0.0
 11
272.234
 21
30.5773
 31
0.0
  0
LINE
  8
0
 62
     1
 10
272.234
 20
30.5773
 30
0.0
 11
272.089
 21
30.5773
 31
0.0
  0
LINE
  8
0
 62
     1
 10
272.089
 20
30.5773
 30
0.0
 11
271.943
 21
30.5773
 31
0.0
  0
LINE
  8
0
 62
     1
 10
271.943
 20
30.5773
 30
0.0
 11
271.505
 21
30.6958
 31
0.0
  0
LINE
  8
0
 62
     1
 10
271.505
 20
30.6958
 30
0.0
 11
271.029
 21
31.0169
 31
0.0
  0
LINE
  8
0
 62
     1
 10
271.029
 20
31.0169
 30
0.0
 11
270.706
 21
31.4937
 31
0.0
  0
LINE
  8
0
 62
     1
 10
270.706
 20
31.4937
 30
0.0
 11
270.589
 21
31.9319
 31
0.0
  0
LINE
  8
0
 62
     1
 10
270.589
 20
31.9319
 30
0.0
 11
270.589
 21
32.078
 31
0.0
  0
LINE
  8
0
 62
     1
 10
270.589
 20
32.078
 30
0.0
 11
270.589
 21
32.2241
 31
0.0
  0
LINE
  8
0
 62
     1
 10
270.589
 20
32.2241
 30
0.0
 11
270.706
 21
32.6622
 31
0.0
  0
LINE
  8
0
 62
     1
 10
270.706
 20
32.6622
 30
0.0
 11
271.029
 21
33.1391
 31
0.0
  0
LINE
  8
0
 62
     1
 10
271.029
 20
33.1391
 30
0.0
 11
271.505
 21
33.4602
 31
0.0
  0
LINE
  8
0
 62
     1
 10
271.505
 20
33.4602
 30
0.0
 11
271.943
 21
33.5773
 31
0.0
  0
LINE
  8
0
 62
     1
 10
271.943
 20
33.5773
 30
0.0
 11
272.089
 21
33.5773
 31
0.0
  0
LINE
  8
0
 62
     1
 10
272.089
 20
33.5773
 30
0.0
 11
272.234
 21
33.5773
 31
0.0
  0
LINE
  8
0
 62
     1
 10
272.234
 20
33.5773
 30
0.0
 11
272.673
 21
33.4602
 31
0.0
  0
LINE
  8
0
 62
     1
 10
272.673
 20
33.4602
 30
0.0
 11
273.149
 21
33.1391
 31
0.0
  0
LINE
  8
0
 62
     1
 10
273.149
 20
33.1391
 30
0.0
 11
273.47
 21
32.6622
 31
0.0
  0
LINE
  8
0
 62
     1
 10
273.47
 20
32.6622
 30
0.0
 11
273.589
 21
32.2241
 31
0.0
  0
LINE
  8
0
 62
     1
 10
273.589
 20
32.2241
 30
0.0
 11
273.589
 21
32.078
 31
0.0
  0
LINE
  8
0
 62
     1
 10
299.489
 20
57.9783
 30
0.0
 11
299.489
 21
57.8323
 31
0.0
  0
LINE
  8
0
 62
     1
 10
299.489
 20
57.8323
 30
0.0
 11
299.37
 21
57.3938
 31
0.0
  0
LINE
  8
0
 62
     1
 10
299.37
 20
57.3938
 30
0.0
 11
299.049
 21
56.9172
 31
0.0
  0
LINE
  8
0
 62
     1
 10
299.049
 20
56.9172
 30
0.0
 11
298.573
 21
56.5961
 31
0.0
  0
LINE
  8
0
 62
     1
 10
298.573
 20
56.5961
 30
0.0
 11
298.134
 21
56.4776
 31
0.0
  0
LINE
  8
0
 62
     1
 10
298.134
 20
56.4776
 30
0.0
 11
297.99
 21
56.4776
 31
0.0
  0
LINE
  8
0
 62
     1
 10
297.99
 20
56.4776
 30
0.0
 11
297.842
 21
56.4776
 31
0.0
  0
LINE
  8
0
 62
     1
 10
297.842
 20
56.4776
 30
0.0
 11
297.404
 21
56.5961
 31
0.0
  0
LINE
  8
0
 62
     1
 10
297.404
 20
56.5961
 30
0.0
 11
296.927
 21
56.9172
 31
0.0
  0
LINE
  8
0
 62
     1
 10
296.927
 20
56.9172
 30
0.0
 11
296.606
 21
57.3938
 31
0.0
  0
LINE
  8
0
 62
     1
 10
296.606
 20
57.3938
 30
0.0
 11
296.489
 21
57.8323
 31
0.0
  0
LINE
  8
0
 62
     1
 10
296.489
 20
57.8323
 30
0.0
 11
296.489
 21
57.9783
 31
0.0
  0
LINE
  8
0
 62
     1
 10
296.489
 20
57.9783
 30
0.0
 11
296.489
 21
58.1244
 31
0.0
  0
LINE
  8
0
 62
     1
 10
296.489
 20
58.1244
 30
0.0
 11
296.606
 21
58.5625
 31
0.0
  0
LINE
  8
0
 62
     1
 10
296.606
 20
58.5625
 30
0.0
 11
296.927
 21
59.0391
 31
0.0
  0
LINE
  8
0
 62
     1
 10
296.927
 20
59.0391
 30
0.0
 11
297.404
 21
59.3605
 31
0.0
  0
LINE
  8
0
 62
     1
 10
297.404
 20
59.3605
 30
0.0
 11
297.842
 21
59.4776
 31
0.0
  0
LINE
  8
0
 62
     1
 10
297.842
 20
59.4776
 30
0.0
 11
297.99
 21
59.4776
 31
0.0
  0
LINE
  8
0
 62
     1
 10
297.99
 20
59.4776
 30
0.0
 11
298.134
 21
59.4776
 31
0.0
  0
LINE
  8
0
 62
     1
 10
298.134
 20
59.4776
 30
0.0
 11
298.573
 21
59.3605
 31
0.0
  0
LINE
  8
0
 62
     1
 10
298.573
 20
59.3605
 30
0.0
 11
299.049
 21
59.0391
 31
0.0
  0
LINE
  8
0
 62
     1
 10
299.049
 20
59.0391
 30
0.0
 11
299.37
 21
58.5625
 31
0.0
  0
LINE
  8
0
 62
     1
 10
299.37
 20
58.5625
 30
0.0
 11
299.489
 21
58.1244
 31
0.0
  0
LINE
  8
0
 62
     1
 10
299.489
 20
58.1244
 30
0.0
 11
299.489
 21
57.9783
 31
0.0
  0
LINE
  8
0
 62
     1
 10
299.539
 20
32.027
 30
0.0
 11
299.539
 21
31.8823
 31
0.0
  0
LINE
  8
0
 62
     1
 10
299.539
 20
31.8823
 30
0.0
 11
299.42
 21
31.4441
 31
0.0
  0
LINE
  8
0
 62
     1
 10
299.42
 20
31.4441
 30
0.0
 11
299.099
 21
30.9673
 31
0.0
  0
LINE
  8
0
 62
     1
 10
299.099
 20
30.9673
 30
0.0
 11
298.622
 21
30.6448
 31
0.0
  0
LINE
  8
0
 62
     1
 10
298.622
 20
30.6448
 30
0.0
 11
298.184
 21
30.5263
 31
0.0
  0
LINE
  8
0
 62
     1
 10
298.184
 20
30.5263
 30
0.0
 11
298.039
 21
30.5263
 31
0.0
  0
LINE
  8
0
 62
     1
 10
298.039
 20
30.5263
 30
0.0
 11
297.893
 21
30.5263
 31
0.0
  0
LINE
  8
0
 62
     1
 10
297.893
 20
30.5263
 30
0.0
 11
297.455
 21
30.6448
 31
0.0
  0
LINE
  8
0
 62
     1
 10
297.455
 20
30.6448
 30
0.0
 11
296.978
 21
30.9673
 31
0.0
  0
LINE
  8
0
 62
     1
 10
296.978
 20
30.9673
 30
0.0
 11
296.656
 21
31.4441
 31
0.0
  0
LINE
  8
0
 62
     1
 10
296.656
 20
31.4441
 30
0.0
 11
296.539
 21
31.8823
 31
0.0
  0
LINE
  8
0
 62
     1
 10
296.539
 20
31.8823
 30
0.0
 11
296.539
 21
32.027
 31
0.0
  0
LINE
  8
0
 62
     1
 10
296.539
 20
32.027
 30
0.0
 11
296.539
 21
32.1731
 31
0.0
  0
LINE
  8
0
 62
     1
 10
296.539
 20
32.1731
 30
0.0
 11
296.656
 21
32.6113
 31
0.0
  0
LINE
  8
0
 62
     1
 10
296.656
 20
32.6113
 30
0.0
 11
296.978
 21
33.0881
 31
0.0
  0
LINE
  8
0
 62
     1
 10
296.978
 20
33.0881
 30
0.0
 11
297.455
 21
33.4092
 31
0.0
  0
LINE
  8
0
 62
     1
 10
297.455
 20
33.4092
 30
0.0
 11
297.893
 21
33.5263
 31
0.0
  0
LINE
  8
0
 62
     1
 10
297.893
 20
33.5263
 30
0.0
 11
298.039
 21
33.5263
 31
0.0
  0
LINE
  8
0
 62
     1
 10
298.039
 20
33.5263
 30
0.0
 11
298.184
 21
33.5263
 31
0.0
  0
LINE
  8
0
 62
     1
 10
298.184
 20
33.5263
 30
0.0
 11
298.622
 21
33.4092
 31
0.0
  0
LINE
  8
0
 62
     1
 10
298.622
 20
33.4092
 30
0.0
 11
299.099
 21
33.0881
 31
0.0
  0
LINE
  8
0
 62
     1
 10
299.099
 20
33.0881
 30
0.0
 11
299.42
 21
32.6113
 31
0.0
  0
LINE
  8
0
 62
     1
 10
299.42
 20
32.6113
 30
0.0
 11
299.539
 21
32.1731
 31
0.0
  0
LINE
  8
0
 62
     1
 10
299.539
 20
32.1731
 30
0.0
 11
299.539
 21
32.027
 31
0.0
  0
LINE
  8
0
 62
     1
 10
176.006
 20
45.0275
 30
0.0
 11
176.006
 21
45.5828
 31
0.0
  0
LINE
  8
0
 62
     1
 10
176.006
 20
45.5828
 30
0.0
 11
175.781
 21
47.2447
 31
0.0
  0
LINE
  8
0
 62
     1
 10
175.781
 20
47.2447
 30
0.0
 11
175.14
 21
49.3102
 31
0.0
  0
LINE
  8
0
 62
     1
 10
175.14
 20
49.3102
 30
0.0
 11
174.126
 21
51.1789
 31
0.0
  0
LINE
  8
0
 62
     1
 10
174.126
 20
51.1789
 30
0.0
 11
172.784
 21
52.8066
 31
0.0
  0
LINE
  8
0
 62
     1
 10
172.784
 20
52.8066
 30
0.0
 11
171.155
 21
54.15
 31
0.0
  0
LINE
  8
0
 62
     1
 10
171.155
 20
54.15
 30
0.0
 11
169.286
 21
55.1642
 31
0.0
  0
LINE
  8
0
 62
     1
 10
169.286
 20
55.1642
 30
0.0
 11
167.222
 21
55.8052
 31
0.0
  0
LINE
  8
0
 62
     1
 10
167.222
 20
55.8052
 30
0.0
 11
165.56
 21
56.0282
 31
0.0
  0
LINE
  8
0
 62
     1
 10
165.56
 20
56.0282
 30
0.0
 11
165.006
 21
56.0282
 31
0.0
  0
LINE
  8
0
 62
     1
 10
165.006
 20
56.0282
 30
0.0
 11
164.451
 21
56.0282
 31
0.0
  0
LINE
  8
0
 62
     1
 10
164.451
 20
56.0282
 30
0.0
 11
162.789
 21
55.8052
 31
0.0
  0
LINE
  8
0
 62
     1
 10
162.789
 20
55.8052
 30
0.0
 11
160.723
 21
55.1642
 31
0.0
  0
LINE
  8
0
 62
     1
 10
160.723
 20
55.1642
 30
0.0
 11
158.855
 21
54.15
 31
0.0
  0
LINE
  8
0
 62
     1
 10
158.855
 20
54.15
 30
0.0
 11
157.227
 21
52.8066
 31
0.0
  0
LINE
  8
0
 62
     1
 10
157.227
 20
52.8066
 30
0.0
 11
155.884
 21
51.1789
 31
0.0
  0
LINE
  8
0
 62
     1
 10
155.884
 20
51.1789
 30
0.0
 11
154.869
 21
49.3102
 31
0.0
  0
LINE
  8
0
 62
     1
 10
154.869
 20
49.3102
 30
0.0
 11
154.229
 21
47.2447
 31
0.0
  0
LINE
  8
0
 62
     1
 10
154.229
 20
47.2447
 30
0.0
 11
154.005
 21
45.5828
 31
0.0
  0
LINE
  8
0
 62
     1
 10
154.005
 20
45.5828
 30
0.0
 11
154.005
 21
45.0275
 31
0.0
  0
LINE
  8
0
 62
     1
 10
154.005
 20
45.0275
 30
0.0
 11
154.005
 21
44.4733
 31
0.0
  0
LINE
  8
0
 62
     1
 10
154.005
 20
44.4733
 30
0.0
 11
154.229
 21
42.8113
 31
0.0
  0
LINE
  8
0
 62
     1
 10
154.229
 20
42.8113
 30
0.0
 11
154.869
 21
40.7472
 31
0.0
  0
LINE
  8
0
 62
     1
 10
154.869
 20
40.7472
 30
0.0
 11
155.884
 21
38.8786
 31
0.0
  0
LINE
  8
0
 62
     1
 10
155.884
 20
38.8786
 30
0.0
 11
157.227
 21
37.2498
 31
0.0
  0
LINE
  8
0
 62
     1
 10
157.227
 20
37.2498
 30
0.0
 11
158.855
 21
35.9061
 31
0.0
  0
LINE
  8
0
 62
     1
 10
158.855
 20
35.9061
 30
0.0
 11
160.723
 21
34.8919
 31
0.0
  0
LINE
  8
0
 62
     1
 10
160.723
 20
34.8919
 30
0.0
 11
162.789
 21
34.2511
 31
0.0
  0
LINE
  8
0
 62
     1
 10
162.789
 20
34.2511
 30
0.0
 11
164.451
 21
34.0265
 31
0.0
  0
LINE
  8
0
 62
     1
 10
164.451
 20
34.0265
 30
0.0
 11
165.006
 21
34.0265
 31
0.0
  0
LINE
  8
0
 62
     1
 10
165.006
 20
34.0265
 30
0.0
 11
165.56
 21
34.0265
 31
0.0
  0
LINE
  8
0
 62
     1
 10
165.56
 20
34.0265
 30
0.0
 11
167.222
 21
34.2511
 31
0.0
  0
LINE
  8
0
 62
     1
 10
167.222
 20
34.2511
 30
0.0
 11
169.286
 21
34.8919
 31
0.0
  0
LINE
  8
0
 62
     1
 10
169.286
 20
34.8919
 30
0.0
 11
171.155
 21
35.9061
 31
0.0
  0
LINE
  8
0
 62
     1
 10
171.155
 20
35.9061
 30
0.0
 11
172.784
 21
37.2498
 31
0.0
  0
LINE
  8
0
 62
     1
 10
172.784
 20
37.2498
 30
0.0
 11
174.126
 21
38.8786
 31
0.0
  0
LINE
  8
0
 62
     1
 10
174.126
 20
38.8786
 30
0.0
 11
175.14
 21
40.7472
 31
0.0
  0
LINE
  8
0
 62
     1
 10
175.14
 20
40.7472
 30
0.0
 11
175.781
 21
42.8113
 31
0.0
  0
LINE
  8
0
 62
     1
 10
175.781
 20
42.8113
 30
0.0
 11
176.006
 21
44.4733
 31
0.0
  0
LINE
  8
0
 62
     1
 10
176.006
 20
44.4733
 30
0.0
 11
176.006
 21
45.0275
 31
0.0
  0
LINE
  8
0
 62
     1
 10
153.556
 20
57.9783
 30
0.0
 11
153.556
 21
57.8323
 31
0.0
  0
LINE
  8
0
 62
     1
 10
153.556
 20
57.8323
 30
0.0
 11
153.438
 21
57.3938
 31
0.0
  0
LINE
  8
0
 62
     1
 10
153.438
 20
57.3938
 30
0.0
 11
153.115
 21
56.9172
 31
0.0
  0
LINE
  8
0
 62
     1
 10
153.115
 20
56.9172
 30
0.0
 11
152.638
 21
56.5961
 31
0.0
  0
LINE
  8
0
 62
     1
 10
152.638
 20
56.5961
 30
0.0
 11
152.2
 21
56.4776
 31
0.0
  0
LINE
  8
0
 62
     1
 10
152.2
 20
56.4776
 30
0.0
 11
152.055
 21
56.4776
 31
0.0
  0
LINE
  8
0
 62
     1
 10
152.055
 20
56.4776
 30
0.0
 11
151.909
 21
56.4776
 31
0.0
  0
LINE
  8
0
 62
     1
 10
151.909
 20
56.4776
 30
0.0
 11
151.471
 21
56.5961
 31
0.0
  0
LINE
  8
0
 62
     1
 10
151.471
 20
56.5961
 30
0.0
 11
150.995
 21
56.9172
 31
0.0
  0
LINE
  8
0
 62
     1
 10
150.995
 20
56.9172
 30
0.0
 11
150.673
 21
57.3938
 31
0.0
  0
LINE
  8
0
 62
     1
 10
150.673
 20
57.3938
 30
0.0
 11
150.556
 21
57.8323
 31
0.0
  0
LINE
  8
0
 62
     1
 10
150.556
 20
57.8323
 30
0.0
 11
150.556
 21
57.9783
 31
0.0
  0
LINE
  8
0
 62
     1
 10
150.556
 20
57.9783
 30
0.0
 11
150.556
 21
58.1244
 31
0.0
  0
LINE
  8
0
 62
     1
 10
150.556
 20
58.1244
 30
0.0
 11
150.673
 21
58.5625
 31
0.0
  0
LINE
  8
0
 62
     1
 10
150.673
 20
58.5625
 30
0.0
 11
150.995
 21
59.0391
 31
0.0
  0
LINE
  8
0
 62
     1
 10
150.995
 20
59.0391
 30
0.0
 11
151.471
 21
59.3605
 31
0.0
  0
LINE
  8
0
 62
     1
 10
151.471
 20
59.3605
 30
0.0
 11
151.909
 21
59.4776
 31
0.0
  0
LINE
  8
0
 62
     1
 10
151.909
 20
59.4776
 30
0.0
 11
152.055
 21
59.4776
 31
0.0
  0
LINE
  8
0
 62
     1
 10
152.055
 20
59.4776
 30
0.0
 11
152.2
 21
59.4776
 31
0.0
  0
LINE
  8
0
 62
     1
 10
152.2
 20
59.4776
 30
0.0
 11
152.638
 21
59.3605
 31
0.0
  0
LINE
  8
0
 62
     1
 10
152.638
 20
59.3605
 30
0.0
 11
153.115
 21
59.0391
 31
0.0
  0
LINE
  8
0
 62
     1
 10
153.115
 20
59.0391
 30
0.0
 11
153.438
 21
58.5625
 31
0.0
  0
LINE
  8
0
 62
     1
 10
153.438
 20
58.5625
 30
0.0
 11
153.556
 21
58.1244
 31
0.0
  0
LINE
  8
0
 62
     1
 10
153.556
 20
58.1244
 30
0.0
 11
153.556
 21
57.9783
 31
0.0
  0
LINE
  8
0
 62
     1
 10
153.556
 20
32.078
 30
0.0
 11
153.556
 21
31.9319
 31
0.0
  0
LINE
  8
0
 62
     1
 10
153.556
 20
31.9319
 30
0.0
 11
153.438
 21
31.4937
 31
0.0
  0
LINE
  8
0
 62
     1
 10
153.438
 20
31.4937
 30
0.0
 11
153.115
 21
31.0169
 31
0.0
  0
LINE
  8
0
 62
     1
 10
153.115
 20
31.0169
 30
0.0
 11
152.638
 21
30.6958
 31
0.0
  0
LINE
  8
0
 62
     1
 10
152.638
 20
30.6958
 30
0.0
 11
152.2
 21
30.5773
 31
0.0
  0
LINE
  8
0
 62
     1
 10
152.2
 20
30.5773
 30
0.0
 11
152.055
 21
30.5773
 31
0.0
  0
LINE
  8
0
 62
     1
 10
152.055
 20
30.5773
 30
0.0
 11
151.909
 21
30.5773
 31
0.0
  0
LINE
  8
0
 62
     1
 10
151.909
 20
30.5773
 30
0.0
 11
151.471
 21
30.6958
 31
0.0
  0
LINE
  8
0
 62
     1
 10
151.471
 20
30.6958
 30
0.0
 11
150.995
 21
31.0169
 31
0.0
  0
LINE
  8
0
 62
     1
 10
150.995
 20
31.0169
 30
0.0
 11
150.673
 21
31.4937
 31
0.0
  0
LINE
  8
0
 62
     1
 10
150.673
 20
31.4937
 30
0.0
 11
150.556
 21
31.9319
 31
0.0
  0
LINE
  8
0
 62
     1
 10
150.556
 20
31.9319
 30
0.0
 11
150.556
 21
32.078
 31
0.0
  0
LINE
  8
0
 62
     1
 10
150.556
 20
32.078
 30
0.0
 11
150.556
 21
32.2241
 31
0.0
  0
LINE
  8
0
 62
     1
 10
150.556
 20
32.2241
 30
0.0
 11
150.673
 21
32.6622
 31
0.0
  0
LINE
  8
0
 62
     1
 10
150.673
 20
32.6622
 30
0.0
 11
150.995
 21
33.1391
 31
0.0
  0
LINE
  8
0
 62
     1
 10
150.995
 20
33.1391
 30
0.0
 11
151.471
 21
33.4602
 31
0.0
  0
LINE
  8
0
 62
     1
 10
151.471
 20
33.4602
 30
0.0
 11
151.909
 21
33.5773
 31
0.0
  0
LINE
  8
0
 62
     1
 10
151.909
 20
33.5773
 30
0.0
 11
152.055
 21
33.5773
 31
0.0
  0
LINE
  8
0
 62
     1
 10
152.055
 20
33.5773
 30
0.0
 11
152.2
 21
33.5773
 31
0.0
  0
LINE
  8
0
 62
     1
 10
152.2
 20
33.5773
 30
0.0
 11
152.638
 21
33.4602
 31
0.0
  0
LINE
  8
0
 62
     1
 10
152.638
 20
33.4602
 30
0.0
 11
153.115
 21
33.1391
 31
0.0
  0
LINE
  8
0
 62
     1
 10
153.115
 20
33.1391
 30
0.0
 11
153.438
 21
32.6622
 31
0.0
  0
LINE
  8
0
 62
     1
 10
153.438
 20
32.6622
 30
0.0
 11
153.556
 21
32.2241
 31
0.0
  0
LINE
  8
0
 62
     1
 10
153.556
 20
32.2241
 30
0.0
 11
153.556
 21
32.078
 31
0.0
  0
LINE
  8
0
 62
     1
 10
179.456
 20
57.9783
 30
0.0
 11
179.456
 21
57.8323
 31
0.0
  0
LINE
  8
0
 62
     1
 10
179.456
 20
57.8323
 30
0.0
 11
179.338
 21
57.3938
 31
0.0
  0
LINE
  8
0
 62
     1
 10
179.338
 20
57.3938
 30
0.0
 11
179.015
 21
56.9172
 31
0.0
  0
LINE
  8
0
 62
     1
 10
179.015
 20
56.9172
 30
0.0
 11
178.539
 21
56.5961
 31
0.0
  0
LINE
  8
0
 62
     1
 10
178.539
 20
56.5961
 30
0.0
 11
178.101
 21
56.4776
 31
0.0
  0
LINE
  8
0
 62
     1
 10
178.101
 20
56.4776
 30
0.0
 11
177.956
 21
56.4776
 31
0.0
  0
LINE
  8
0
 62
     1
 10
177.956
 20
56.4776
 30
0.0
 11
177.81
 21
56.4776
 31
0.0
  0
LINE
  8
0
 62
     1
 10
177.81
 20
56.4776
 30
0.0
 11
177.371
 21
56.5961
 31
0.0
  0
LINE
  8
0
 62
     1
 10
177.371
 20
56.5961
 30
0.0
 11
176.895
 21
56.9172
 31
0.0
  0
LINE
  8
0
 62
     1
 10
176.895
 20
56.9172
 30
0.0
 11
176.573
 21
57.3938
 31
0.0
  0
LINE
  8
0
 62
     1
 10
176.573
 20
57.3938
 30
0.0
 11
176.456
 21
57.8323
 31
0.0
  0
LINE
  8
0
 62
     1
 10
176.456
 20
57.8323
 30
0.0
 11
176.456
 21
57.9783
 31
0.0
  0
LINE
  8
0
 62
     1
 10
176.456
 20
57.9783
 30
0.0
 11
176.456
 21
58.1244
 31
0.0
  0
LINE
  8
0
 62
     1
 10
176.456
 20
58.1244
 30
0.0
 11
176.573
 21
58.5625
 31
0.0
  0
LINE
  8
0
 62
     1
 10
176.573
 20
58.5625
 30
0.0
 11
176.895
 21
59.0391
 31
0.0
  0
LINE
  8
0
 62
     1
 10
176.895
 20
59.0391
 30
0.0
 11
177.371
 21
59.3605
 31
0.0
  0
LINE
  8
0
 62
     1
 10
177.371
 20
59.3605
 30
0.0
 11
177.81
 21
59.4776
 31
0.0
  0
LINE
  8
0
 62
     1
 10
177.81
 20
59.4776
 30
0.0
 11
177.956
 21
59.4776
 31
0.0
  0
LINE
  8
0
 62
     1
 10
177.956
 20
59.4776
 30
0.0
 11
178.101
 21
59.4776
 31
0.0
  0
LINE
  8
0
 62
     1
 10
178.101
 20
59.4776
 30
0.0
 11
178.539
 21
59.3605
 31
0.0
  0
LINE
  8
0
 62
     1
 10
178.539
 20
59.3605
 30
0.0
 11
179.015
 21
59.0391
 31
0.0
  0
LINE
  8
0
 62
     1
 10
179.015
 20
59.0391
 30
0.0
 11
179.338
 21
58.5625
 31
0.0
  0
LINE
  8
0
 62
     1
 10
179.338
 20
58.5625
 30
0.0
 11
179.456
 21
58.1244
 31
0.0
  0
LINE
  8
0
 62
     1
 10
179.456
 20
58.1244
 30
0.0
 11
179.456
 21
57.9783
 31
0.0
  0
LINE
  8
0
 62
     1
 10
179.506
 20
32.027
 30
0.0
 11
179.506
 21
31.8823
 31
0.0
  0
LINE
  8
0
 62
     1
 10
179.506
 20
31.8823
 30
0.0
 11
179.388
 21
31.4441
 31
0.0
  0
LINE
  8
0
 62
     1
 10
179.388
 20
31.4441
 30
0.0
 11
179.066
 21
30.9673
 31
0.0
  0
LINE
  8
0
 62
     1
 10
179.066
 20
30.9673
 30
0.0
 11
178.59
 21
30.6448
 31
0.0
  0
LINE
  8
0
 62
     1
 10
178.59
 20
30.6448
 30
0.0
 11
178.151
 21
30.5263
 31
0.0
  0
LINE
  8
0
 62
     1
 10
178.151
 20
30.5263
 30
0.0
 11
178.005
 21
30.5263
 31
0.0
  0
LINE
  8
0
 62
     1
 10
178.005
 20
30.5263
 30
0.0
 11
177.859
 21
30.5263
 31
0.0
  0
LINE
  8
0
 62
     1
 10
177.859
 20
30.5263
 30
0.0
 11
177.421
 21
30.6448
 31
0.0
  0
LINE
  8
0
 62
     1
 10
177.421
 20
30.6448
 30
0.0
 11
176.944
 21
30.9673
 31
0.0
  0
LINE
  8
0
 62
     1
 10
176.944
 20
30.9673
 30
0.0
 11
176.623
 21
31.4441
 31
0.0
  0
LINE
  8
0
 62
     1
 10
176.623
 20
31.4441
 30
0.0
 11
176.506
 21
31.8823
 31
0.0
  0
LINE
  8
0
 62
     1
 10
176.506
 20
31.8823
 30
0.0
 11
176.506
 21
32.027
 31
0.0
  0
LINE
  8
0
 62
     1
 10
176.506
 20
32.027
 30
0.0
 11
176.506
 21
32.1731
 31
0.0
  0
LINE
  8
0
 62
     1
 10
176.506
 20
32.1731
 30
0.0
 11
176.623
 21
32.6113
 31
0.0
  0
LINE
  8
0
 62
     1
 10
176.623
 20
32.6113
 30
0.0
 11
176.944
 21
33.0881
 31
0.0
  0
LINE
  8
0
 62
     1
 10
176.944
 20
33.0881
 30
0.0
 11
177.421
 21
33.4092
 31
0.0
  0
LINE
  8
0
 62
     1
 10
177.421
 20
33.4092
 30
0.0
 11
177.859
 21
33.5263
 31
0.0
  0
LINE
  8
0
 62
     1
 10
177.859
 20
33.5263
 30
0.0
 11
178.005
 21
33.5263
 31
0.0
  0
LINE
  8
0
 62
     1
 10
178.005
 20
33.5263
 30
0.0
 11
178.151
 21
33.5263
 31
0.0
  0
LINE
  8
0
 62
     1
 10
178.151
 20
33.5263
 30
0.0
 11
178.59
 21
33.4092
 31
0.0
  0
LINE
  8
0
 62
     1
 10
178.59
 20
33.4092
 30
0.0
 11
179.066
 21
33.0881
 31
0.0
  0
LINE
  8
0
 62
     1
 10
179.066
 20
33.0881
 30
0.0
 11
179.388
 21
32.6113
 31
0.0
  0
LINE
  8
0
 62
     1
 10
179.388
 20
32.6113
 30
0.0
 11
179.506
 21
32.1731
 31
0.0
  0
LINE
  8
0
 62
     1
 10
179.506
 20
32.1731
 30
0.0
 11
179.506
 21
32.027
 31
0.0
  0
LINE
  8
0
 62
     1
 10
242.115
 20
45.0025
 30
0.0
 11
242.115
 21
44.8084
 31
0.0
  0
LINE
  8
0
 62
     1
 10
242.115
 20
44.8084
 30
0.0
 11
241.956
 21
44.2239
 31
0.0
  0
LINE
  8
0
 62
     1
 10
241.956
 20
44.2239
 30
0.0
 11
241.528
 21
43.5889
 31
0.0
  0
LINE
  8
0
 62
     1
 10
241.528
 20
43.5889
 30
0.0
 11
240.892
 21
43.1602
 31
0.0
  0
LINE
  8
0
 62
     1
 10
240.892
 20
43.1602
 30
0.0
 11
240.309
 21
43.0029
 31
0.0
  0
LINE
  8
0
 62
     1
 10
240.309
 20
43.0029
 30
0.0
 11
240.115
 21
43.0029
 31
0.0
  0
LINE
  8
0
 62
     1
 10
240.115
 20
43.0029
 30
0.0
 11
239.919
 21
43.0029
 31
0.0
  0
LINE
  8
0
 62
     1
 10
239.919
 20
43.0029
 30
0.0
 11
239.335
 21
43.1602
 31
0.0
  0
LINE
  8
0
 62
     1
 10
239.335
 20
43.1602
 30
0.0
 11
238.7
 21
43.5889
 31
0.0
  0
LINE
  8
0
 62
     1
 10
238.7
 20
43.5889
 30
0.0
 11
238.271
 21
44.2239
 31
0.0
  0
LINE
  8
0
 62
     1
 10
238.271
 20
44.2239
 30
0.0
 11
238.114
 21
44.8084
 31
0.0
  0
LINE
  8
0
 62
     1
 10
238.114
 20
44.8084
 30
0.0
 11
238.114
 21
45.0025
 31
0.0
  0
LINE
  8
0
 62
     1
 10
238.114
 20
45.0025
 30
0.0
 11
238.114
 21
45.1982
 31
0.0
  0
LINE
  8
0
 62
     1
 10
238.114
 20
45.1982
 30
0.0
 11
238.271
 21
45.781
 31
0.0
  0
LINE
  8
0
 62
     1
 10
238.271
 20
45.781
 30
0.0
 11
238.7
 21
46.4164
 31
0.0
  0
LINE
  8
0
 62
     1
 10
238.7
 20
46.4164
 30
0.0
 11
239.335
 21
46.845
 31
0.0
  0
LINE
  8
0
 62
     1
 10
239.335
 20
46.845
 30
0.0
 11
239.919
 21
47.002
 31
0.0
  0
LINE
  8
0
 62
     1
 10
239.919
 20
47.002
 30
0.0
 11
240.115
 21
47.002
 31
0.0
  0
LINE
  8
0
 62
     1
 10
240.115
 20
47.002
 30
0.0
 11
240.309
 21
47.002
 31
0.0
  0
LINE
  8
0
 62
     1
 10
240.309
 20
47.002
 30
0.0
 11
240.892
 21
46.845
 31
0.0
  0
LINE
  8
0
 62
     1
 10
240.892
 20
46.845
 30
0.0
 11
241.528
 21
46.4164
 31
0.0
  0
LINE
  8
0
 62
     1
 10
241.528
 20
46.4164
 30
0.0
 11
241.956
 21
45.781
 31
0.0
  0
LINE
  8
0
 62
     1
 10
241.956
 20
45.781
 30
0.0
 11
242.115
 21
45.1982
 31
0.0
  0
LINE
  8
0
 62
     1
 10
242.115
 20
45.1982
 30
0.0
 11
242.115
 21
45.0025
 31
0.0
  0
LINE
  8
0
 62
     1
 10
211.981
 20
45.1143
 30
0.0
 11
211.981
 21
44.9199
 31
0.0
  0
LINE
  8
0
 62
     1
 10
211.981
 20
44.9199
 30
0.0
 11
211.822
 21
44.3371
 31
0.0
  0
LINE
  8
0
 62
     1
 10
211.822
 20
44.3371
 30
0.0
 11
211.394
 21
43.7018
 31
0.0
  0
LINE
  8
0
 62
     1
 10
211.394
 20
43.7018
 30
0.0
 11
210.759
 21
43.2731
 31
0.0
  0
LINE
  8
0
 62
     1
 10
210.759
 20
43.2731
 30
0.0
 11
210.175
 21
43.1147
 31
0.0
  0
LINE
  8
0
 62
     1
 10
210.175
 20
43.1147
 30
0.0
 11
209.981
 21
43.1147
 31
0.0
  0
LINE
  8
0
 62
     1
 10
209.981
 20
43.1147
 30
0.0
 11
209.786
 21
43.1147
 31
0.0
  0
LINE
  8
0
 62
     1
 10
209.786
 20
43.1147
 30
0.0
 11
209.201
 21
43.2731
 31
0.0
  0
LINE
  8
0
 62
     1
 10
209.201
 20
43.2731
 30
0.0
 11
208.566
 21
43.7018
 31
0.0
  0
LINE
  8
0
 62
     1
 10
208.566
 20
43.7018
 30
0.0
 11
208.137
 21
44.3371
 31
0.0
  0
LINE
  8
0
 62
     1
 10
208.137
 20
44.3371
 30
0.0
 11
207.981
 21
44.9199
 31
0.0
  0
LINE
  8
0
 62
     1
 10
207.981
 20
44.9199
 30
0.0
 11
207.981
 21
45.1143
 31
0.0
  0
LINE
  8
0
 62
     1
 10
207.981
 20
45.1143
 30
0.0
 11
207.981
 21
45.3101
 31
0.0
  0
LINE
  8
0
 62
     1
 10
207.981
 20
45.3101
 30
0.0
 11
208.137
 21
45.8943
 31
0.0
  0
LINE
  8
0
 62
     1
 10
208.137
 20
45.8943
 30
0.0
 11
208.566
 21
46.5296
 31
0.0
  0
LINE
  8
0
 62
     1
 10
208.566
 20
46.5296
 30
0.0
 11
209.201
 21
46.9579
 31
0.0
  0
LINE
  8
0
 62
     1
 10
209.201
 20
46.9579
 30
0.0
 11
209.786
 21
47.1152
 31
0.0
  0
LINE
  8
0
 62
     1
 10
209.786
 20
47.1152
 30
0.0
 11
209.981
 21
47.1152
 31
0.0
  0
LINE
  8
0
 62
     1
 10
209.981
 20
47.1152
 30
0.0
 11
210.175
 21
47.1152
 31
0.0
  0
LINE
  8
0
 62
     1
 10
210.175
 20
47.1152
 30
0.0
 11
210.759
 21
46.9579
 31
0.0
  0
LINE
  8
0
 62
     1
 10
210.759
 20
46.9579
 30
0.0
 11
211.394
 21
46.5296
 31
0.0
  0
LINE
  8
0
 62
     1
 10
211.394
 20
46.5296
 30
0.0
 11
211.822
 21
45.8943
 31
0.0
  0
LINE
  8
0
 62
     1
 10
211.822
 20
45.8943
 30
0.0
 11
211.981
 21
45.3101
 31
0.0
  0
LINE
  8
0
 62
     1
 10
211.981
 20
45.3101
 30
0.0
 11
211.981
 21
45.1143
 31
0.0
  0
ENDSEC
  0
EOF
