  0
SECTION
  2
HEADER
  9
$ACADVER
  1
AC1009
  9
$EXTMIN
 10
0.0
 20
0.0
 30
0.0
  9
$EXTMAX
 10
1000.0
 20
1000.0
 30
0.0
  9
$FILLMODE
 70
 0
  9
$SPLFRAME
 70
 1
  0
ENDSEC
  0
SECTION
  2
TABLES
  0
TABLE
  2
LAYER
 70
1
  0
LAYER
  2
0
 70
     0
 62
     7
  6
CONTINUOUS
  0
ENDTAB
  0
ENDSEC
  0
SECTION
  2
ENTITIES
  0
LINE
  8
0
 62
     1
 10
189.348
 20
0.0496094
 30
0.0
 11
189.348
 21
6.04957
 31
0.0
  0
LINE
  8
0
 62
     1
 10
189.348
 20
0.0496094
 30
0.0
 11
199.949
 21
0.0496094
 31
0.0
  0
LINE
  8
0
 62
     1
 10
199.949
 20
0.0496094
 30
0.0
 11
199.949
 21
6.04957
 31
0.0
  0
LINE
  8
0
 62
     1
 10
0.0496094
 20
6.04957
 30
0.0
 11
0.0468535
 21
8.67473
 31
0.0
  0
LINE
  8
0
 62
     1
 10
0.0468535
 20
8.67473
 30
0.0
 11
0.593933
 21
16.5516
 31
0.0
  0
LINE
  8
0
 62
     1
 10
0.593933
 20
16.5516
 30
0.0
 11
2.22002
 21
26.8525
 31
0.0
  0
LINE
  8
0
 62
     1
 10
2.22002
 20
26.8525
 30
0.0
 11
4.89479
 21
36.8762
 31
0.0
  0
LINE
  8
0
 62
     1
 10
4.89479
 20
36.8762
 30
0.0
 11
8.58379
 21
46.5434
 31
0.0
  0
LINE
  8
0
 62
     1
 10
8.58379
 20
46.5434
 30
0.0
 11
13.2512
 21
55.7788
 31
0.0
  0
LINE
  8
0
 62
     1
 10
13.2512
 20
55.7788
 30
0.0
 11
18.864
 21
64.5033
 31
0.0
  0
LINE
  8
0
 62
     1
 10
18.864
 20
64.5033
 30
0.0
 11
25.3876
 21
72.6391
 31
0.0
  0
LINE
  8
0
 62
     1
 10
25.3876
 20
72.6391
 30
0.0
 11
30.846
 21
78.3442
 31
0.0
  0
LINE
  8
0
 62
     1
 10
30.846
 20
78.3442
 30
0.0
 11
32.789
 21
80.1081
 31
0.0
  0
LINE
  8
0
 62
     1
 10
170.05
 20
77.5021
 30
0.0
 11
167.372
 21
80.1218
 31
0.0
  0
LINE
  8
0
 62
     1
 10
167.372
 20
80.1218
 30
0.0
 11
159.863
 21
88.5155
 31
0.0
  0
LINE
  8
0
 62
     1
 10
159.863
 20
88.5155
 30
0.0
 11
150.891
 21
100.398
 31
0.0
  0
LINE
  8
0
 62
     1
 10
150.891
 20
100.398
 30
0.0
 11
143.176
 21
113.052
 31
0.0
  0
LINE
  8
0
 62
     1
 10
143.176
 20
113.052
 30
0.0
 11
136.761
 21
126.372
 31
0.0
  0
LINE
  8
0
 62
     1
 10
136.761
 20
126.372
 30
0.0
 11
131.687
 21
140.258
 31
0.0
  0
LINE
  8
0
 62
     1
 10
131.687
 20
140.258
 30
0.0
 11
127.999
 21
154.611
 31
0.0
  0
LINE
  8
0
 62
     1
 10
127.999
 20
154.611
 30
0.0
 11
125.739
 21
169.326
 31
0.0
  0
LINE
  8
0
 62
     1
 10
125.739
 20
169.326
 30
0.0
 11
124.961
 21
180.562
 31
0.0
  0
LINE
  8
0
 62
     1
 10
124.961
 20
180.562
 30
0.0
 11
124.951
 21
184.306
 31
0.0
  0
LINE
  8
0
 62
     1
 10
75.0397
 20
183.196
 30
0.0
 11
75.0108
 21
179.605
 31
0.0
  0
LINE
  8
0
 62
     1
 10
75.0108
 20
179.605
 30
0.0
 11
74.2364
 21
168.833
 31
0.0
  0
LINE
  8
0
 62
     1
 10
74.2364
 20
168.833
 30
0.0
 11
72.081
 21
154.71
 31
0.0
  0
LINE
  8
0
 62
     1
 10
72.081
 20
154.71
 30
0.0
 11
68.6082
 21
140.914
 31
0.0
  0
LINE
  8
0
 62
     1
 10
68.6082
 20
140.914
 30
0.0
 11
63.857
 21
127.539
 31
0.0
  0
LINE
  8
0
 62
     1
 10
63.857
 20
127.539
 30
0.0
 11
57.8612
 21
114.672
 31
0.0
  0
LINE
  8
0
 62
     1
 10
57.8612
 20
114.672
 30
0.0
 11
50.6596
 21
102.405
 31
0.0
  0
LINE
  8
0
 62
     1
 10
50.6596
 20
102.405
 30
0.0
 11
42.2878
 21
90.8265
 31
0.0
  0
LINE
  8
0
 62
     1
 10
42.2878
 20
90.8265
 30
0.0
 11
35.2848
 21
82.6064
 31
0.0
  0
LINE
  8
0
 62
     1
 10
35.2848
 20
82.6064
 30
0.0
 11
32.7849
 21
80.0269
 31
0.0
  0
LINE
  8
0
 62
     1
 10
199.949
 20
6.04957
 30
0.0
 11
199.951
 21
8.55211
 31
0.0
  0
LINE
  8
0
 62
     1
 10
199.951
 20
8.55211
 30
0.0
 11
199.455
 21
16.0583
 31
0.0
  0
LINE
  8
0
 62
     1
 10
199.455
 20
16.0583
 30
0.0
 11
197.976
 21
25.8933
 31
0.0
  0
LINE
  8
0
 62
     1
 10
197.976
 20
25.8933
 30
0.0
 11
195.539
 21
35.4873
 31
0.0
  0
LINE
  8
0
 62
     1
 10
195.539
 20
35.4873
 30
0.0
 11
192.177
 21
44.7724
 31
0.0
  0
LINE
  8
0
 62
     1
 10
192.177
 20
44.7724
 30
0.0
 11
187.913
 21
53.6801
 31
0.0
  0
LINE
  8
0
 62
     1
 10
187.913
 20
53.6801
 30
0.0
 11
182.78
 21
62.1439
 31
0.0
  0
LINE
  8
0
 62
     1
 10
182.78
 20
62.1439
 30
0.0
 11
176.804
 21
70.0927
 31
0.0
  0
LINE
  8
0
 62
     1
 10
176.804
 20
70.0927
 30
0.0
 11
171.799
 21
75.7093
 31
0.0
  0
LINE
  8
0
 62
     1
 10
171.799
 20
75.7093
 30
0.0
 11
170.014
 21
77.4608
 31
0.0
  0
LINE
  8
0
 62
     1
 10
75.0478
 20
183.245
 30
0.0
 11
75.0478
 21
296.619
 31
0.0
  0
LINE
  8
0
 62
     1
 10
124.948
 20
184.335
 30
0.0
 11
124.948
 21
296.619
 31
0.0
  0
LINE
  8
0
 62
     1
 10
75.0478
 20
296.619
 30
0.0
 11
124.948
 21
296.619
 31
0.0
  0
LINE
  8
0
 62
     1
 10
10.6495
 20
6.04957
 30
0.0
 11
63.3497
 21
6.04957
 31
0.0
  0
LINE
  8
0
 62
     1
 10
0.0496094
 20
0.0496094
 30
0.0
 11
0.0496094
 21
6.04957
 31
0.0
  0
LINE
  8
0
 62
     1
 10
0.0496094
 20
0.0496094
 30
0.0
 11
10.6495
 21
0.0496094
 31
0.0
  0
LINE
  8
0
 62
     1
 10
10.6495
 20
0.0496094
 30
0.0
 11
10.6495
 21
6.04957
 31
0.0
  0
LINE
  8
0
 62
     1
 10
63.3497
 20
0.0496094
 30
0.0
 11
63.3497
 21
6.04957
 31
0.0
  0
LINE
  8
0
 62
     1
 10
63.3497
 20
0.0496094
 30
0.0
 11
73.3503
 21
0.0496094
 31
0.0
  0
LINE
  8
0
 62
     1
 10
73.3503
 20
0.0496094
 30
0.0
 11
73.3503
 21
6.04957
 31
0.0
  0
LINE
  8
0
 62
     1
 10
126.649
 20
0.0496094
 30
0.0
 11
126.649
 21
6.04957
 31
0.0
  0
LINE
  8
0
 62
     1
 10
126.649
 20
0.0496094
 30
0.0
 11
136.649
 21
0.0496094
 31
0.0
  0
LINE
  8
0
 62
     1
 10
136.649
 20
0.0496094
 30
0.0
 11
136.649
 21
6.04957
 31
0.0
  0
LINE
  8
0
 62
     1
 10
73.3503
 20
6.04957
 30
0.0
 11
126.649
 21
6.04957
 31
0.0
  0
LINE
  8
0
 62
     1
 10
136.649
 20
6.04957
 30
0.0
 11
189.348
 21
6.04957
 31
0.0
  0
LINE
  8
0
 62
     1
 10
117.066
 20
285.924
 30
0.0
 11
117.066
 21
285.729
 31
0.0
  0
LINE
  8
0
 62
     1
 10
117.066
 20
285.729
 30
0.0
 11
116.907
 21
285.145
 31
0.0
  0
LINE
  8
0
 62
     1
 10
116.907
 20
285.145
 30
0.0
 11
116.479
 21
284.51
 31
0.0
  0
LINE
  8
0
 62
     1
 10
116.479
 20
284.51
 30
0.0
 11
115.843
 21
284.081
 31
0.0
  0
LINE
  8
0
 62
     1
 10
115.843
 20
284.081
 30
0.0
 11
115.259
 21
283.924
 31
0.0
  0
LINE
  8
0
 62
     1
 10
115.259
 20
283.924
 30
0.0
 11
115.065
 21
283.924
 31
0.0
  0
LINE
  8
0
 62
     1
 10
115.065
 20
283.924
 30
0.0
 11
114.869
 21
283.924
 31
0.0
  0
LINE
  8
0
 62
     1
 10
114.869
 20
283.924
 30
0.0
 11
114.286
 21
284.081
 31
0.0
  0
LINE
  8
0
 62
     1
 10
114.286
 20
284.081
 30
0.0
 11
113.651
 21
284.51
 31
0.0
  0
LINE
  8
0
 62
     1
 10
113.651
 20
284.51
 30
0.0
 11
113.222
 21
285.145
 31
0.0
  0
LINE
  8
0
 62
     1
 10
113.222
 20
285.145
 30
0.0
 11
113.065
 21
285.729
 31
0.0
  0
LINE
  8
0
 62
     1
 10
113.065
 20
285.729
 30
0.0
 11
113.065
 21
285.924
 31
0.0
  0
LINE
  8
0
 62
     1
 10
113.065
 20
285.924
 30
0.0
 11
113.065
 21
286.119
 31
0.0
  0
LINE
  8
0
 62
     1
 10
113.065
 20
286.119
 30
0.0
 11
113.222
 21
286.704
 31
0.0
  0
LINE
  8
0
 62
     1
 10
113.222
 20
286.704
 30
0.0
 11
113.651
 21
287.339
 31
0.0
  0
LINE
  8
0
 62
     1
 10
113.651
 20
287.339
 30
0.0
 11
114.286
 21
287.768
 31
0.0
  0
LINE
  8
0
 62
     1
 10
114.286
 20
287.768
 30
0.0
 11
114.869
 21
287.923
 31
0.0
  0
LINE
  8
0
 62
     1
 10
114.869
 20
287.923
 30
0.0
 11
115.065
 21
287.923
 31
0.0
  0
LINE
  8
0
 62
     1
 10
115.065
 20
287.923
 30
0.0
 11
115.259
 21
287.923
 31
0.0
  0
LINE
  8
0
 62
     1
 10
115.259
 20
287.923
 30
0.0
 11
115.843
 21
287.768
 31
0.0
  0
LINE
  8
0
 62
     1
 10
115.843
 20
287.768
 30
0.0
 11
116.479
 21
287.339
 31
0.0
  0
LINE
  8
0
 62
     1
 10
116.479
 20
287.339
 30
0.0
 11
116.907
 21
286.704
 31
0.0
  0
LINE
  8
0
 62
     1
 10
116.907
 20
286.704
 30
0.0
 11
117.066
 21
286.119
 31
0.0
  0
LINE
  8
0
 62
     1
 10
117.066
 20
286.119
 30
0.0
 11
117.066
 21
285.924
 31
0.0
  0
LINE
  8
0
 62
     1
 10
86.9322
 20
286.034
 30
0.0
 11
86.9322
 21
285.84
 31
0.0
  0
LINE
  8
0
 62
     1
 10
86.9322
 20
285.84
 30
0.0
 11
86.7738
 21
285.257
 31
0.0
  0
LINE
  8
0
 62
     1
 10
86.7738
 20
285.257
 30
0.0
 11
86.3452
 21
284.621
 31
0.0
  0
LINE
  8
0
 62
     1
 10
86.3452
 20
284.621
 30
0.0
 11
85.7098
 21
284.194
 31
0.0
  0
LINE
  8
0
 62
     1
 10
85.7098
 20
284.194
 30
0.0
 11
85.1256
 21
284.036
 31
0.0
  0
LINE
  8
0
 62
     1
 10
85.1256
 20
284.036
 30
0.0
 11
84.9313
 21
284.036
 31
0.0
  0
LINE
  8
0
 62
     1
 10
84.9313
 20
284.036
 30
0.0
 11
84.7355
 21
284.036
 31
0.0
  0
LINE
  8
0
 62
     1
 10
84.7355
 20
284.036
 30
0.0
 11
84.1527
 21
284.194
 31
0.0
  0
LINE
  8
0
 62
     1
 10
84.1527
 20
284.194
 30
0.0
 11
83.5173
 21
284.621
 31
0.0
  0
LINE
  8
0
 62
     1
 10
83.5173
 20
284.621
 30
0.0
 11
83.0887
 21
285.257
 31
0.0
  0
LINE
  8
0
 62
     1
 10
83.0887
 20
285.257
 30
0.0
 11
82.9317
 21
285.84
 31
0.0
  0
LINE
  8
0
 62
     1
 10
82.9317
 20
285.84
 30
0.0
 11
82.9317
 21
286.034
 31
0.0
  0
LINE
  8
0
 62
     1
 10
82.9317
 20
286.034
 30
0.0
 11
82.9317
 21
286.229
 31
0.0
  0
LINE
  8
0
 62
     1
 10
82.9317
 20
286.229
 30
0.0
 11
83.0887
 21
286.814
 31
0.0
  0
LINE
  8
0
 62
     1
 10
83.0887
 20
286.814
 30
0.0
 11
83.5173
 21
287.449
 31
0.0
  0
LINE
  8
0
 62
     1
 10
83.5173
 20
287.449
 30
0.0
 11
84.1527
 21
287.878
 31
0.0
  0
LINE
  8
0
 62
     1
 10
84.1527
 20
287.878
 30
0.0
 11
84.7355
 21
288.035
 31
0.0
  0
LINE
  8
0
 62
     1
 10
84.7355
 20
288.035
 30
0.0
 11
84.9313
 21
288.035
 31
0.0
  0
LINE
  8
0
 62
     1
 10
84.9313
 20
288.035
 30
0.0
 11
85.1256
 21
288.035
 31
0.0
  0
LINE
  8
0
 62
     1
 10
85.1256
 20
288.035
 30
0.0
 11
85.7098
 21
287.878
 31
0.0
  0
LINE
  8
0
 62
     1
 10
85.7098
 20
287.878
 30
0.0
 11
86.3452
 21
287.449
 31
0.0
  0
LINE
  8
0
 62
     1
 10
86.3452
 20
287.449
 30
0.0
 11
86.7738
 21
286.814
 31
0.0
  0
LINE
  8
0
 62
     1
 10
86.7738
 20
286.814
 30
0.0
 11
86.9322
 21
286.229
 31
0.0
  0
LINE
  8
0
 62
     1
 10
86.9322
 20
286.229
 30
0.0
 11
86.9322
 21
286.034
 31
0.0
  0
LINE
  8
0
 62
     1
 10
68.9472
 20
16.1506
 30
0.0
 11
68.9472
 21
26.151
 31
0.0
  0
LINE
  8
0
 62
     1
 10
74.9473
 20
16.1506
 30
0.0
 11
68.9472
 21
16.1506
 31
0.0
  0
LINE
  8
0
 62
     1
 10
74.9473
 20
16.1506
 30
0.0
 11
74.9473
 21
26.151
 31
0.0
  0
LINE
  8
0
 62
     1
 10
74.9473
 20
26.151
 30
0.0
 11
68.9472
 21
26.151
 31
0.0
  0
LINE
  8
0
 62
     1
 10
74.9473
 20
66.2217
 30
0.0
 11
68.9472
 21
66.2217
 31
0.0
  0
LINE
  8
0
 62
     1
 10
74.9473
 20
66.2217
 30
0.0
 11
74.9473
 21
76.2208
 31
0.0
  0
LINE
  8
0
 62
     1
 10
74.9473
 20
76.2208
 30
0.0
 11
68.9472
 21
76.2208
 31
0.0
  0
LINE
  8
0
 62
     1
 10
68.9472
 20
66.2217
 30
0.0
 11
68.9472
 21
76.2194
 31
0.0
  0
LINE
  8
0
 62
     1
 10
125.049
 20
16.1506
 30
0.0
 11
125.049
 21
26.151
 31
0.0
  0
LINE
  8
0
 62
     1
 10
131.049
 20
16.1506
 30
0.0
 11
125.049
 21
16.1506
 31
0.0
  0
LINE
  8
0
 62
     1
 10
131.049
 20
16.1506
 30
0.0
 11
131.049
 21
26.151
 31
0.0
  0
LINE
  8
0
 62
     1
 10
131.049
 20
26.151
 30
0.0
 11
125.049
 21
26.151
 31
0.0
  0
LINE
  8
0
 62
     1
 10
131.049
 20
66.2217
 30
0.0
 11
125.049
 21
66.2217
 31
0.0
  0
LINE
  8
0
 62
     1
 10
131.049
 20
66.2217
 30
0.0
 11
131.049
 21
76.2208
 31
0.0
  0
LINE
  8
0
 62
     1
 10
131.049
 20
76.2208
 30
0.0
 11
125.049
 21
76.2208
 31
0.0
  0
LINE
  8
0
 62
     1
 10
125.049
 20
66.2217
 30
0.0
 11
125.049
 21
76.2194
 31
0.0
  0
ENDSEC
  0
EOF
