  0
SECTION
  2
HEADER
  9
$ACADVER
  1
AC1009
  9
$EXTMIN
 10
0.0
 20
0.0
 30
0.0
  9
$EXTMAX
 10
1000.0
 20
1000.0
 30
0.0
  9
$FILLMODE
 70
 0
  9
$SPLFRAME
 70
 1
  0
ENDSEC
  0
SECTION
  2
TABLES
  0
TABLE
  2
LAYER
 70
1
  0
LAYER
  2
0
 70
     0
 62
     7
  6
CONTINUOUS
  0
ENDTAB
  0
ENDSEC
  0
SECTION
  2
ENTITIES
  0
LINE
  8
0
 62
     1
 10
53.5658
 20
201.505
 30
0.0
 11
53.14
 21
199.988
 31
0.0
  0
LINE
  8
0
 62
     1
 10
53.14
 20
199.988
 30
0.0
 11
51.4382
 21
195.555
 31
0.0
  0
LINE
  8
0
 62
     1
 10
51.4382
 20
195.555
 30
0.0
 11
48.5126
 21
189.987
 31
0.0
  0
LINE
  8
0
 62
     1
 10
48.5126
 20
189.987
 30
0.0
 11
44.8388
 21
184.882
 31
0.0
  0
LINE
  8
0
 62
     1
 10
44.8388
 20
184.882
 30
0.0
 11
41.6334
 21
181.376
 31
0.0
  0
LINE
  8
0
 62
     1
 10
41.6334
 20
181.376
 30
0.0
 11
40.4661
 21
180.318
 31
0.0
  0
LINE
  8
0
 62
     1
 10
396.487
 20
74.1426
 30
0.0
 11
396.953
 21
75.7633
 31
0.0
  0
LINE
  8
0
 62
     1
 10
396.953
 20
75.7633
 30
0.0
 11
398.847
 21
80.4831
 31
0.0
  0
LINE
  8
0
 62
     1
 10
398.847
 20
80.4831
 30
0.0
 11
402.114
 21
86.3646
 31
0.0
  0
LINE
  8
0
 62
     1
 10
402.114
 20
86.3646
 30
0.0
 11
406.22
 21
91.6933
 31
0.0
  0
LINE
  8
0
 62
     1
 10
406.22
 20
91.6933
 30
0.0
 11
409.801
 21
95.3022
 31
0.0
  0
LINE
  8
0
 62
     1
 10
409.801
 20
95.3022
 30
0.0
 11
411.106
 21
96.3732
 31
0.0
  0
LINE
  8
0
 62
     1
 10
269.951
 20
235.308
 30
0.0
 11
269.095
 21
234.152
 31
0.0
  0
LINE
  8
0
 62
     1
 10
269.095
 20
234.152
 30
0.0
 11
265.99
 21
231.082
 31
0.0
  0
LINE
  8
0
 62
     1
 10
265.99
 20
231.082
 30
0.0
 11
261.231
 21
227.917
 31
0.0
  0
LINE
  8
0
 62
     1
 10
261.231
 20
227.917
 30
0.0
 11
255.874
 21
225.918
 31
0.0
  0
LINE
  8
0
 62
     1
 10
255.874
 20
225.918
 30
0.0
 11
251.567
 21
225.203
 31
0.0
  0
LINE
  8
0
 62
     1
 10
251.567
 20
225.203
 30
0.0
 11
250.129
 21
225.189
 31
0.0
  0
LINE
  8
0
 62
     1
 10
250.129
 20
225.189
 30
0.0
 11
248.69
 21
225.176
 31
0.0
  0
LINE
  8
0
 62
     1
 10
248.69
 20
225.176
 30
0.0
 11
244.369
 21
225.805
 31
0.0
  0
LINE
  8
0
 62
     1
 10
244.369
 20
225.805
 30
0.0
 11
238.975
 21
227.7
 31
0.0
  0
LINE
  8
0
 62
     1
 10
238.975
 20
227.7
 30
0.0
 11
234.155
 21
230.773
 31
0.0
  0
LINE
  8
0
 62
     1
 10
234.155
 20
230.773
 30
0.0
 11
230.991
 21
233.783
 31
0.0
  0
LINE
  8
0
 62
     1
 10
230.991
 20
233.783
 30
0.0
 11
230.114
 21
234.922
 31
0.0
  0
LINE
  8
0
 62
     1
 10
180.425
 20
40.6425
 30
0.0
 11
181.307
 21
41.7752
 31
0.0
  0
LINE
  8
0
 62
     1
 10
181.307
 20
41.7752
 30
0.0
 11
184.482
 21
44.7587
 31
0.0
  0
LINE
  8
0
 62
     1
 10
184.482
 20
44.7587
 30
0.0
 11
189.311
 21
47.7986
 31
0.0
  0
LINE
  8
0
 62
     1
 10
189.311
 20
47.7986
 30
0.0
 11
194.703
 21
49.6616
 31
0.0
  0
LINE
  8
0
 62
     1
 10
194.703
 20
49.6616
 30
0.0
 11
199.018
 21
50.2694
 31
0.0
  0
LINE
  8
0
 62
     1
 10
199.018
 20
50.2694
 30
0.0
 11
200.454
 21
50.249
 31
0.0
  0
LINE
  8
0
 62
     1
 10
200.454
 20
50.249
 30
0.0
 11
201.888
 21
50.2296
 31
0.0
  0
LINE
  8
0
 62
     1
 10
201.888
 20
50.2296
 30
0.0
 11
206.183
 21
49.5004
 31
0.0
  0
LINE
  8
0
 62
     1
 10
206.183
 20
49.5004
 30
0.0
 11
211.522
 21
47.4857
 31
0.0
  0
LINE
  8
0
 62
     1
 10
211.522
 20
47.4857
 30
0.0
 11
216.262
 21
44.3107
 31
0.0
  0
LINE
  8
0
 62
     1
 10
216.262
 20
44.3107
 30
0.0
 11
219.352
 21
41.238
 31
0.0
  0
LINE
  8
0
 62
     1
 10
219.352
 20
41.238
 30
0.0
 11
220.202
 21
40.0801
 31
0.0
  0
LINE
  8
0
 62
     1
 10
269.986
 20
235.365
 30
0.0
 11
271.073
 21
236.817
 31
0.0
  0
LINE
  8
0
 62
     1
 10
271.073
 20
236.817
 30
0.0
 11
274.544
 21
241.017
 31
0.0
  0
LINE
  8
0
 62
     1
 10
274.544
 20
241.017
 30
0.0
 11
279.451
 21
246.275
 31
0.0
  0
LINE
  8
0
 62
     1
 10
279.451
 20
246.275
 30
0.0
 11
284.684
 21
251.129
 31
0.0
  0
LINE
  8
0
 62
     1
 10
284.684
 20
251.129
 30
0.0
 11
290.213
 21
255.571
 31
0.0
  0
LINE
  8
0
 62
     1
 10
290.213
 20
255.571
 30
0.0
 11
296.018
 21
259.591
 31
0.0
  0
LINE
  8
0
 62
     1
 10
296.018
 20
259.591
 30
0.0
 11
302.07
 21
263.179
 31
0.0
  0
LINE
  8
0
 62
     1
 10
302.07
 20
263.179
 30
0.0
 11
308.346
 21
266.326
 31
0.0
  0
LINE
  8
0
 62
     1
 10
308.346
 20
266.326
 30
0.0
 11
314.821
 21
269.023
 31
0.0
  0
LINE
  8
0
 62
     1
 10
314.821
 20
269.023
 30
0.0
 11
321.467
 21
271.26
 31
0.0
  0
LINE
  8
0
 62
     1
 10
321.467
 20
271.26
 30
0.0
 11
328.263
 21
273.028
 31
0.0
  0
LINE
  8
0
 62
     1
 10
328.263
 20
273.028
 30
0.0
 11
335.179
 21
274.316
 31
0.0
  0
LINE
  8
0
 62
     1
 10
335.179
 20
274.316
 30
0.0
 11
342.194
 21
275.117
 31
0.0
  0
LINE
  8
0
 62
     1
 10
342.194
 20
275.117
 30
0.0
 11
349.28
 21
275.419
 31
0.0
  0
LINE
  8
0
 62
     1
 10
349.28
 20
275.419
 30
0.0
 11
356.415
 21
275.215
 31
0.0
  0
LINE
  8
0
 62
     1
 10
356.415
 20
275.215
 30
0.0
 11
363.569
 21
274.493
 31
0.0
  0
LINE
  8
0
 62
     1
 10
363.569
 20
274.493
 30
0.0
 11
368.949
 21
273.62
 31
0.0
  0
LINE
  8
0
 62
     1
 10
368.949
 20
273.62
 30
0.0
 11
370.724
 21
273.244
 31
0.0
  0
LINE
  8
0
 62
     1
 10
370.724
 20
273.244
 30
0.0
 11
372.495
 21
272.868
 31
0.0
  0
LINE
  8
0
 62
     1
 10
372.495
 20
272.868
 30
0.0
 11
377.765
 21
271.483
 31
0.0
  0
LINE
  8
0
 62
     1
 10
377.765
 20
271.483
 30
0.0
 11
384.598
 21
269.238
 31
0.0
  0
LINE
  8
0
 62
     1
 10
384.598
 20
269.238
 30
0.0
 11
391.199
 21
266.531
 31
0.0
  0
LINE
  8
0
 62
     1
 10
391.199
 20
266.531
 30
0.0
 11
397.556
 21
263.378
 31
0.0
  0
LINE
  8
0
 62
     1
 10
397.556
 20
263.378
 30
0.0
 11
403.641
 21
259.8
 31
0.0
  0
LINE
  8
0
 62
     1
 10
403.641
 20
259.8
 30
0.0
 11
409.441
 21
255.815
 31
0.0
  0
LINE
  8
0
 62
     1
 10
409.441
 20
255.815
 30
0.0
 11
414.934
 21
251.442
 31
0.0
  0
LINE
  8
0
 62
     1
 10
414.934
 20
251.442
 30
0.0
 11
420.102
 21
246.699
 31
0.0
  0
LINE
  8
0
 62
     1
 10
420.102
 20
246.699
 30
0.0
 11
424.921
 21
241.607
 31
0.0
  0
LINE
  8
0
 62
     1
 10
424.921
 20
241.607
 30
0.0
 11
429.38
 21
236.183
 31
0.0
  0
LINE
  8
0
 62
     1
 10
429.38
 20
236.183
 30
0.0
 11
433.458
 21
230.448
 31
0.0
  0
LINE
  8
0
 62
     1
 10
433.458
 20
230.448
 30
0.0
 11
437.13
 21
224.418
 31
0.0
  0
LINE
  8
0
 62
     1
 10
437.13
 20
224.418
 30
0.0
 11
440.383
 21
218.114
 31
0.0
  0
LINE
  8
0
 62
     1
 10
440.383
 20
218.114
 30
0.0
 11
443.195
 21
211.554
 31
0.0
  0
LINE
  8
0
 62
     1
 10
443.195
 20
211.554
 30
0.0
 11
445.544
 21
204.757
 31
0.0
  0
LINE
  8
0
 62
     1
 10
445.544
 20
204.757
 30
0.0
 11
447.015
 21
199.511
 31
0.0
  0
LINE
  8
0
 62
     1
 10
447.015
 20
199.511
 30
0.0
 11
447.417
 21
197.741
 31
0.0
  0
LINE
  8
0
 62
     1
 10
447.417
 20
197.741
 30
0.0
 11
447.823
 21
195.974
 31
0.0
  0
LINE
  8
0
 62
     1
 10
447.823
 20
195.974
 30
0.0
 11
448.779
 21
190.61
 31
0.0
  0
LINE
  8
0
 62
     1
 10
448.779
 20
190.61
 30
0.0
 11
449.615
 21
183.467
 31
0.0
  0
LINE
  8
0
 62
     1
 10
449.615
 20
183.467
 30
0.0
 11
449.929
 21
176.338
 31
0.0
  0
LINE
  8
0
 62
     1
 10
449.929
 20
176.338
 30
0.0
 11
449.742
 21
169.247
 31
0.0
  0
LINE
  8
0
 62
     1
 10
449.742
 20
169.247
 30
0.0
 11
449.051
 21
162.22
 31
0.0
  0
LINE
  8
0
 62
     1
 10
449.051
 20
162.22
 30
0.0
 11
447.873
 21
155.283
 31
0.0
  0
LINE
  8
0
 62
     1
 10
447.873
 20
155.283
 30
0.0
 11
446.214
 21
148.46
 31
0.0
  0
LINE
  8
0
 62
     1
 10
446.214
 20
148.46
 30
0.0
 11
444.08
 21
141.78
 31
0.0
  0
LINE
  8
0
 62
     1
 10
444.08
 20
141.78
 30
0.0
 11
441.487
 21
135.263
 31
0.0
  0
LINE
  8
0
 62
     1
 10
441.487
 20
135.263
 30
0.0
 11
438.439
 21
128.937
 31
0.0
  0
LINE
  8
0
 62
     1
 10
438.439
 20
128.937
 30
0.0
 11
434.947
 21
122.829
 31
0.0
  0
LINE
  8
0
 62
     1
 10
434.947
 20
122.829
 30
0.0
 11
431.02
 21
116.962
 31
0.0
  0
LINE
  8
0
 62
     1
 10
431.02
 20
116.962
 30
0.0
 11
426.667
 21
111.362
 31
0.0
  0
LINE
  8
0
 62
     1
 10
426.667
 20
111.362
 30
0.0
 11
421.894
 21
106.054
 31
0.0
  0
LINE
  8
0
 62
     1
 10
421.894
 20
106.054
 30
0.0
 11
416.715
 21
101.064
 31
0.0
  0
LINE
  8
0
 62
     1
 10
416.715
 20
101.064
 30
0.0
 11
412.574
 21
97.5265
 31
0.0
  0
LINE
  8
0
 62
     1
 10
412.574
 20
97.5265
 30
0.0
 11
411.138
 21
96.4159
 31
0.0
  0
LINE
  8
0
 62
     1
 10
53.6127
 20
201.575
 30
0.0
 11
54.0826
 21
203.291
 31
0.0
  0
LINE
  8
0
 62
     1
 10
54.0826
 20
203.291
 30
0.0
 11
55.7375
 21
208.372
 31
0.0
  0
LINE
  8
0
 62
     1
 10
55.7375
 20
208.372
 30
0.0
 11
58.3145
 21
214.939
 31
0.0
  0
LINE
  8
0
 62
     1
 10
58.3145
 20
214.939
 30
0.0
 11
61.3255
 21
221.262
 31
0.0
  0
LINE
  8
0
 62
     1
 10
61.3255
 20
221.262
 30
0.0
 11
64.7513
 21
227.323
 31
0.0
  0
LINE
  8
0
 62
     1
 10
64.7513
 20
227.323
 30
0.0
 11
68.574
 21
233.105
 31
0.0
  0
LINE
  8
0
 62
     1
 10
68.574
 20
233.105
 30
0.0
 11
72.7728
 21
238.591
 31
0.0
  0
LINE
  8
0
 62
     1
 10
72.7728
 20
238.591
 30
0.0
 11
77.3299
 21
243.761
 31
0.0
  0
LINE
  8
0
 62
     1
 10
77.3299
 20
243.761
 30
0.0
 11
82.2276
 21
248.602
 31
0.0
  0
LINE
  8
0
 62
     1
 10
82.2276
 20
248.602
 30
0.0
 11
87.4462
 21
253.095
 31
0.0
  0
LINE
  8
0
 62
     1
 10
87.4462
 20
253.095
 30
0.0
 11
92.9679
 21
257.222
 31
0.0
  0
LINE
  8
0
 62
     1
 10
92.9679
 20
257.222
 30
0.0
 11
98.7735
 21
260.966
 31
0.0
  0
LINE
  8
0
 62
     1
 10
98.7735
 20
260.966
 30
0.0
 11
104.844
 21
264.311
 31
0.0
  0
LINE
  8
0
 62
     1
 10
104.844
 20
264.311
 30
0.0
 11
111.16
 21
267.237
 31
0.0
  0
LINE
  8
0
 62
     1
 10
111.16
 20
267.237
 30
0.0
 11
117.704
 21
269.73
 31
0.0
  0
LINE
  8
0
 62
     1
 10
117.704
 20
269.73
 30
0.0
 11
124.458
 21
271.771
 31
0.0
  0
LINE
  8
0
 62
     1
 10
124.458
 20
271.771
 30
0.0
 11
129.654
 21
273.012
 31
0.0
  0
LINE
  8
0
 62
     1
 10
129.654
 20
273.012
 30
0.0
 11
131.402
 21
273.342
 31
0.0
  0
LINE
  8
0
 62
     1
 10
131.402
 20
273.342
 30
0.0
 11
133.149
 21
273.673
 31
0.0
  0
LINE
  8
0
 62
     1
 10
133.149
 20
273.673
 30
0.0
 11
138.438
 21
274.418
 31
0.0
  0
LINE
  8
0
 62
     1
 10
138.438
 20
274.418
 30
0.0
 11
145.47
 21
274.987
 31
0.0
  0
LINE
  8
0
 62
     1
 10
145.47
 20
274.987
 30
0.0
 11
152.473
 21
275.059
 31
0.0
  0
LINE
  8
0
 62
     1
 10
152.473
 20
275.059
 30
0.0
 11
159.421
 21
274.645
 31
0.0
  0
LINE
  8
0
 62
     1
 10
159.421
 20
274.645
 30
0.0
 11
166.295
 21
273.75
 31
0.0
  0
LINE
  8
0
 62
     1
 10
166.295
 20
273.75
 30
0.0
 11
173.066
 21
272.387
 31
0.0
  0
LINE
  8
0
 62
     1
 10
173.066
 20
272.387
 30
0.0
 11
179.714
 21
270.564
 31
0.0
  0
LINE
  8
0
 62
     1
 10
179.714
 20
270.564
 30
0.0
 11
186.214
 21
268.29
 31
0.0
  0
LINE
  8
0
 62
     1
 10
186.214
 20
268.29
 30
0.0
 11
192.542
 21
265.576
 31
0.0
  0
LINE
  8
0
 62
     1
 10
192.542
 20
265.576
 30
0.0
 11
198.675
 21
262.428
 31
0.0
  0
LINE
  8
0
 62
     1
 10
198.675
 20
262.428
 30
0.0
 11
204.588
 21
258.858
 31
0.0
  0
LINE
  8
0
 62
     1
 10
204.588
 20
258.858
 30
0.0
 11
210.258
 21
254.874
 31
0.0
  0
LINE
  8
0
 62
     1
 10
210.258
 20
254.874
 30
0.0
 11
215.663
 21
250.485
 31
0.0
  0
LINE
  8
0
 62
     1
 10
215.663
 20
250.485
 30
0.0
 11
220.775
 21
245.7
 31
0.0
  0
LINE
  8
0
 62
     1
 10
220.775
 20
245.7
 30
0.0
 11
225.577
 21
240.53
 31
0.0
  0
LINE
  8
0
 62
     1
 10
225.577
 20
240.53
 30
0.0
 11
228.974
 21
236.407
 31
0.0
  0
LINE
  8
0
 62
     1
 10
228.974
 20
236.407
 30
0.0
 11
230.039
 21
234.982
 31
0.0
  0
LINE
  8
0
 62
     1
 10
180.367
 20
40.6012
 30
0.0
 11
179.28
 21
39.1308
 31
0.0
  0
LINE
  8
0
 62
     1
 10
179.28
 20
39.1308
 30
0.0
 11
175.806
 21
34.8782
 31
0.0
  0
LINE
  8
0
 62
     1
 10
175.806
 20
34.8782
 30
0.0
 11
170.888
 21
29.5534
 31
0.0
  0
LINE
  8
0
 62
     1
 10
170.888
 20
29.5534
 30
0.0
 11
165.64
 21
24.6352
 31
0.0
  0
LINE
  8
0
 62
     1
 10
165.64
 20
24.6352
 30
0.0
 11
160.085
 21
20.1359
 31
0.0
  0
LINE
  8
0
 62
     1
 10
160.085
 20
20.1359
 30
0.0
 11
154.252
 21
16.0652
 31
0.0
  0
LINE
  8
0
 62
     1
 10
154.252
 20
16.0652
 30
0.0
 11
148.165
 21
12.4299
 31
0.0
  0
LINE
  8
0
 62
     1
 10
148.165
 20
12.4299
 30
0.0
 11
141.851
 21
9.2425
 31
0.0
  0
LINE
  8
0
 62
     1
 10
141.851
 20
9.2425
 30
0.0
 11
135.334
 21
6.5126
 31
0.0
  0
LINE
  8
0
 62
     1
 10
135.334
 20
6.5126
 30
0.0
 11
128.641
 21
4.2485
 31
0.0
  0
LINE
  8
0
 62
     1
 10
128.641
 20
4.2485
 30
0.0
 11
121.797
 21
2.4598
 31
0.0
  0
LINE
  8
0
 62
     1
 10
121.797
 20
2.4598
 30
0.0
 11
114.828
 21
1.15893
 31
0.0
  0
LINE
  8
0
 62
     1
 10
114.828
 20
1.15893
 30
0.0
 11
107.76
 21
0.352778
 31
0.0
  0
LINE
  8
0
 62
     1
 10
107.76
 20
0.352778
 30
0.0
 11
100.619
 21
0.0523656
 31
0.0
  0
LINE
  8
0
 62
     1
 10
100.619
 20
0.0523656
 30
0.0
 11
93.4297
 21
0.26734
 31
0.0
  0
LINE
  8
0
 62
     1
 10
93.4297
 20
0.26734
 30
0.0
 11
86.2196
 21
1.00735
 31
0.0
  0
LINE
  8
0
 62
     1
 10
86.2196
 20
1.00735
 30
0.0
 11
80.8013
 21
1.89756
 31
0.0
  0
LINE
  8
0
 62
     1
 10
80.8013
 20
1.89756
 30
0.0
 11
79.0141
 21
2.28065
 31
0.0
  0
LINE
  8
0
 62
     1
 10
79.0141
 20
2.28065
 30
0.0
 11
77.2252
 21
2.66513
 31
0.0
  0
LINE
  8
0
 62
     1
 10
77.2252
 20
2.66513
 30
0.0
 11
71.9183
 21
4.07762
 31
0.0
  0
LINE
  8
0
 62
     1
 10
71.9183
 20
4.07762
 30
0.0
 11
65.0406
 21
6.36242
 31
0.0
  0
LINE
  8
0
 62
     1
 10
65.0406
 20
6.36242
 30
0.0
 11
58.3971
 21
9.11712
 31
0.0
  0
LINE
  8
0
 62
     1
 10
58.3971
 20
9.11712
 30
0.0
 11
52.0086
 21
12.3238
 31
0.0
  0
LINE
  8
0
 62
     1
 10
52.0086
 20
12.3238
 30
0.0
 11
45.8957
 21
15.9591
 31
0.0
  0
LINE
  8
0
 62
     1
 10
45.8957
 20
15.9591
 30
0.0
 11
40.0748
 21
20.0077
 31
0.0
  0
LINE
  8
0
 62
     1
 10
40.0748
 20
20.0077
 30
0.0
 11
34.5681
 21
24.4478
 31
0.0
  0
LINE
  8
0
 62
     1
 10
34.5681
 20
24.4478
 30
0.0
 11
29.3935
 21
29.2599
 31
0.0
  0
LINE
  8
0
 62
     1
 10
29.3935
 20
29.2599
 30
0.0
 11
24.5718
 21
34.4248
 31
0.0
  0
LINE
  8
0
 62
     1
 10
24.5718
 20
34.4248
 30
0.0
 11
20.1221
 21
39.9232
 31
0.0
  0
LINE
  8
0
 62
     1
 10
20.1221
 20
39.9232
 30
0.0
 11
16.0624
 21
45.7369
 31
0.0
  0
LINE
  8
0
 62
     1
 10
16.0624
 20
45.7369
 30
0.0
 11
12.4147
 21
51.8446
 31
0.0
  0
LINE
  8
0
 62
     1
 10
12.4147
 20
51.8446
 30
0.0
 11
9.19702
 21
58.2263
 31
0.0
  0
LINE
  8
0
 62
     1
 10
9.19702
 20
58.2263
 30
0.0
 11
6.42994
 21
64.8656
 31
0.0
  0
LINE
  8
0
 62
     1
 10
6.42994
 20
64.8656
 30
0.0
 11
4.13135
 21
71.7391
 31
0.0
  0
LINE
  8
0
 62
     1
 10
4.13135
 20
71.7391
 30
0.0
 11
2.70922
 21
77.0449
 31
0.0
  0
LINE
  8
0
 62
     1
 10
2.70922
 20
77.0449
 30
0.0
 11
2.32199
 21
78.8307
 31
0.0
  0
LINE
  8
0
 62
     1
 10
2.32199
 20
78.8307
 30
0.0
 11
1.93477
 21
80.6178
 31
0.0
  0
LINE
  8
0
 62
     1
 10
1.93477
 20
80.6178
 30
0.0
 11
1.03215
 21
86.0351
 31
0.0
  0
LINE
  8
0
 62
     1
 10
1.03215
 20
86.0351
 30
0.0
 11
0.278364
 21
93.2448
 31
0.0
  0
LINE
  8
0
 62
     1
 10
0.278364
 20
93.2448
 30
0.0
 11
0.0496094
 21
100.433
 31
0.0
  0
LINE
  8
0
 62
     1
 10
0.0496094
 20
100.433
 30
0.0
 11
0.336241
 21
107.575
 31
0.0
  0
LINE
  8
0
 62
     1
 10
0.336241
 20
107.575
 30
0.0
 11
1.12861
 21
114.645
 31
0.0
  0
LINE
  8
0
 62
     1
 10
1.12861
 20
114.645
 30
0.0
 11
2.41708
 21
121.616
 31
0.0
  0
LINE
  8
0
 62
     1
 10
2.41708
 20
121.616
 30
0.0
 11
4.19199
 21
128.463
 31
0.0
  0
LINE
  8
0
 62
     1
 10
4.19199
 20
128.463
 30
0.0
 11
6.44232
 21
135.162
 31
0.0
  0
LINE
  8
0
 62
     1
 10
6.44232
 20
135.162
 30
0.0
 11
9.1598
 21
141.684
 31
0.0
  0
LINE
  8
0
 62
     1
 10
9.1598
 20
141.684
 30
0.0
 11
12.3348
 21
148.005
 31
0.0
  0
LINE
  8
0
 62
     1
 10
12.3348
 20
148.005
 30
0.0
 11
15.9577
 21
154.1
 31
0.0
  0
LINE
  8
0
 62
     1
 10
15.9577
 20
154.1
 30
0.0
 11
20.0174
 21
159.942
 31
0.0
  0
LINE
  8
0
 62
     1
 10
20.0174
 20
159.942
 30
0.0
 11
24.5056
 21
165.504
 31
0.0
  0
LINE
  8
0
 62
     1
 10
24.5056
 20
165.504
 30
0.0
 11
29.4128
 21
170.762
 31
0.0
  0
LINE
  8
0
 62
     1
 10
29.4128
 20
170.762
 30
0.0
 11
34.7279
 21
175.69
 31
0.0
  0
LINE
  8
0
 62
     1
 10
34.7279
 20
175.69
 30
0.0
 11
38.9738
 21
179.174
 31
0.0
  0
LINE
  8
0
 62
     1
 10
38.9738
 20
179.174
 30
0.0
 11
40.4428
 21
180.262
 31
0.0
  0
LINE
  8
0
 62
     1
 10
396.43
 20
74.108
 30
0.0
 11
395.965
 21
72.3967
 31
0.0
  0
LINE
  8
0
 62
     1
 10
395.965
 20
72.3967
 30
0.0
 11
394.324
 21
67.3241
 31
0.0
  0
LINE
  8
0
 62
     1
 10
394.324
 20
67.3241
 30
0.0
 11
391.77
 21
60.7646
 31
0.0
  0
LINE
  8
0
 62
     1
 10
391.77
 20
60.7646
 30
0.0
 11
388.782
 21
54.4477
 31
0.0
  0
LINE
  8
0
 62
     1
 10
388.782
 20
54.4477
 30
0.0
 11
385.378
 21
48.3898
 31
0.0
  0
LINE
  8
0
 62
     1
 10
385.378
 20
48.3898
 30
0.0
 11
381.582
 21
42.6089
 31
0.0
  0
LINE
  8
0
 62
     1
 10
381.582
 20
42.6089
 30
0.0
 11
377.409
 21
37.1228
 31
0.0
  0
LINE
  8
0
 62
     1
 10
377.409
 20
37.1228
 30
0.0
 11
372.879
 21
31.9471
 31
0.0
  0
LINE
  8
0
 62
     1
 10
372.879
 20
31.9471
 30
0.0
 11
368.007
 21
27.1005
 31
0.0
  0
LINE
  8
0
 62
     1
 10
368.007
 20
27.1005
 30
0.0
 11
362.814
 21
22.5998
 31
0.0
  0
LINE
  8
0
 62
     1
 10
362.814
 20
22.5998
 30
0.0
 11
357.318
 21
18.4616
 31
0.0
  0
LINE
  8
0
 62
     1
 10
357.318
 20
18.4616
 30
0.0
 11
351.54
 21
14.7023
 31
0.0
  0
LINE
  8
0
 62
     1
 10
351.54
 20
14.7023
 30
0.0
 11
345.496
 21
11.3412
 31
0.0
  0
LINE
  8
0
 62
     1
 10
345.496
 20
11.3412
 30
0.0
 11
339.204
 21
8.39502
 31
0.0
  0
LINE
  8
0
 62
     1
 10
339.204
 20
8.39502
 30
0.0
 11
332.685
 21
5.8801
 31
0.0
  0
LINE
  8
0
 62
     1
 10
332.685
 20
5.8801
 30
0.0
 11
325.956
 21
3.81441
 31
0.0
  0
LINE
  8
0
 62
     1
 10
325.956
 20
3.81441
 30
0.0
 11
320.777
 21
2.5535
 31
0.0
  0
LINE
  8
0
 62
     1
 10
320.777
 20
2.5535
 30
0.0
 11
319.035
 21
2.21451
 31
0.0
  0
LINE
  8
0
 62
     1
 10
319.035
 20
2.21451
 30
0.0
 11
317.292
 21
1.87689
 31
0.0
  0
LINE
  8
0
 62
     1
 10
317.292
 20
1.87689
 30
0.0
 11
312.018
 21
1.10932
 31
0.0
  0
LINE
  8
0
 62
     1
 10
312.018
 20
1.10932
 30
0.0
 11
305.004
 21
0.508497
 31
0.0
  0
LINE
  8
0
 62
     1
 10
305.004
 20
0.508497
 30
0.0
 11
298.017
 21
0.40101
 31
0.0
  0
LINE
  8
0
 62
     1
 10
298.017
 20
0.40101
 30
0.0
 11
291.08
 21
0.77997
 31
0.0
  0
LINE
  8
0
 62
     1
 10
291.08
 20
0.77997
 30
0.0
 11
284.218
 21
1.63573
 31
0.0
  0
LINE
  8
0
 62
     1
 10
284.218
 20
1.63573
 30
0.0
 11
277.453
 21
2.95865
 31
0.0
  0
LINE
  8
0
 62
     1
 10
277.453
 20
2.95865
 30
0.0
 11
270.809
 21
4.74183
 31
0.0
  0
LINE
  8
0
 62
     1
 10
270.809
 20
4.74183
 30
0.0
 11
264.311
 21
6.97286
 31
0.0
  0
LINE
  8
0
 62
     1
 10
264.311
 20
6.97286
 30
0.0
 11
257.98
 21
9.64628
 31
0.0
  0
LINE
  8
0
 62
     1
 10
257.98
 20
9.64628
 30
0.0
 11
251.841
 21
12.7496
 31
0.0
  0
LINE
  8
0
 62
     1
 10
251.841
 20
12.7496
 30
0.0
 11
245.918
 21
16.276
 31
0.0
  0
LINE
  8
0
 62
     1
 10
245.918
 20
16.276
 30
0.0
 11
240.235
 21
20.2158
 31
0.0
  0
LINE
  8
0
 62
     1
 10
240.235
 20
20.2158
 30
0.0
 11
234.813
 21
24.5608
 31
0.0
  0
LINE
  8
0
 62
     1
 10
234.813
 20
24.5608
 30
0.0
 11
229.681
 21
29.3012
 31
0.0
  0
LINE
  8
0
 62
     1
 10
229.681
 20
29.3012
 30
0.0
 11
224.856
 21
34.4275
 31
0.0
  0
LINE
  8
0
 62
     1
 10
224.856
 20
34.4275
 30
0.0
 11
221.438
 21
38.5177
 31
0.0
  0
LINE
  8
0
 62
     1
 10
221.438
 20
38.5177
 30
0.0
 11
220.366
 21
39.9313
 31
0.0
  0
LINE
  8
0
 62
     1
 10
125.355
 20
130.736
 30
0.0
 11
135.354
 21
130.736
 31
0.0
  0
LINE
  8
0
 62
     1
 10
125.355
 20
124.736
 30
0.0
 11
125.355
 21
130.736
 31
0.0
  0
LINE
  8
0
 62
     1
 10
125.355
 20
124.736
 30
0.0
 11
135.354
 21
124.736
 31
0.0
  0
LINE
  8
0
 62
     1
 10
135.354
 20
124.736
 30
0.0
 11
135.354
 21
130.736
 31
0.0
  0
LINE
  8
0
 62
     1
 10
188.353
 20
124.736
 30
0.0
 11
188.353
 21
130.736
 31
0.0
  0
LINE
  8
0
 62
     1
 10
188.353
 20
124.736
 30
0.0
 11
198.354
 21
124.736
 31
0.0
  0
LINE
  8
0
 62
     1
 10
198.354
 20
124.736
 30
0.0
 11
198.354
 21
130.736
 31
0.0
  0
LINE
  8
0
 62
     1
 10
251.653
 20
124.736
 30
0.0
 11
251.653
 21
130.736
 31
0.0
  0
LINE
  8
0
 62
     1
 10
251.653
 20
124.736
 30
0.0
 11
261.654
 21
124.736
 31
0.0
  0
LINE
  8
0
 62
     1
 10
261.654
 20
124.736
 30
0.0
 11
261.654
 21
130.736
 31
0.0
  0
LINE
  8
0
 62
     1
 10
188.353
 20
130.736
 30
0.0
 11
198.354
 21
130.736
 31
0.0
  0
LINE
  8
0
 62
     1
 10
251.653
 20
130.736
 30
0.0
 11
261.654
 21
130.736
 31
0.0
  0
LINE
  8
0
 62
     1
 10
314.653
 20
124.736
 30
0.0
 11
314.653
 21
130.736
 31
0.0
  0
LINE
  8
0
 62
     1
 10
314.653
 20
124.736
 30
0.0
 11
324.652
 21
124.736
 31
0.0
  0
LINE
  8
0
 62
     1
 10
324.652
 20
124.736
 30
0.0
 11
324.652
 21
130.736
 31
0.0
  0
LINE
  8
0
 62
     1
 10
314.653
 20
130.736
 30
0.0
 11
324.652
 21
130.736
 31
0.0
  0
LINE
  8
0
 62
     1
 10
193.952
 20
140.834
 30
0.0
 11
193.952
 21
150.835
 31
0.0
  0
LINE
  8
0
 62
     1
 10
199.952
 20
140.834
 30
0.0
 11
193.952
 21
140.834
 31
0.0
  0
LINE
  8
0
 62
     1
 10
199.952
 20
140.834
 30
0.0
 11
199.952
 21
150.835
 31
0.0
  0
LINE
  8
0
 62
     1
 10
199.952
 20
150.835
 30
0.0
 11
193.952
 21
150.835
 31
0.0
  0
LINE
  8
0
 62
     1
 10
199.952
 20
190.905
 30
0.0
 11
193.952
 21
190.905
 31
0.0
  0
LINE
  8
0
 62
     1
 10
199.952
 20
190.905
 30
0.0
 11
199.952
 21
200.907
 31
0.0
  0
LINE
  8
0
 62
     1
 10
199.952
 20
200.907
 30
0.0
 11
193.952
 21
200.907
 31
0.0
  0
LINE
  8
0
 62
     1
 10
193.952
 20
190.905
 30
0.0
 11
193.952
 21
200.906
 31
0.0
  0
LINE
  8
0
 62
     1
 10
250.052
 20
140.834
 30
0.0
 11
250.052
 21
150.835
 31
0.0
  0
LINE
  8
0
 62
     1
 10
256.052
 20
140.834
 30
0.0
 11
250.052
 21
140.834
 31
0.0
  0
LINE
  8
0
 62
     1
 10
256.052
 20
140.834
 30
0.0
 11
256.052
 21
150.835
 31
0.0
  0
LINE
  8
0
 62
     1
 10
256.052
 20
150.835
 30
0.0
 11
250.052
 21
150.835
 31
0.0
  0
LINE
  8
0
 62
     1
 10
256.052
 20
190.905
 30
0.0
 11
250.052
 21
190.905
 31
0.0
  0
LINE
  8
0
 62
     1
 10
256.052
 20
190.905
 30
0.0
 11
256.052
 21
200.907
 31
0.0
  0
LINE
  8
0
 62
     1
 10
256.052
 20
200.907
 30
0.0
 11
250.052
 21
200.907
 31
0.0
  0
LINE
  8
0
 62
     1
 10
250.052
 20
190.905
 30
0.0
 11
250.052
 21
200.906
 31
0.0
  0
ENDSEC
  0
EOF
