  0
SECTION
  2
HEADER
  9
$ACADVER
  1
AC1009
  9
$EXTMIN
 10
0.0
 20
0.0
 30
0.0
  9
$EXTMAX
 10
1000.0
 20
1000.0
 30
0.0
  9
$FILLMODE
 70
 0
  9
$SPLFRAME
 70
 1
  0
ENDSEC
  0
SECTION
  2
TABLES
  0
TABLE
  2
LAYER
 70
1
  0
LAYER
  2
0
 70
     0
 62
     7
  6
CONTINUOUS
  0
ENDTAB
  0
ENDSEC
  0
SECTION
  2
ENTITIES
  0
LINE
  8
0
 62
     1
 10
6.04957
 20
89.9238
 30
0.0
 11
6.04957
 21
99.6763
 31
0.0
  0
LINE
  8
0
 62
     1
 10
6.04957
 20
19.4538
 30
0.0
 11
6.04957
 21
29.2544
 31
0.0
  0
LINE
  8
0
 62
     1
 10
6.04957
 20
39.8544
 30
0.0
 11
6.04957
 21
79.3238
 31
0.0
  0
LINE
  8
0
 62
     1
 10
0.0496094
 20
79.3238
 30
0.0
 11
0.0496094
 21
89.9238
 31
0.0
  0
LINE
  8
0
 62
     1
 10
0.0496094
 20
89.9238
 30
0.0
 11
6.04957
 21
89.9238
 31
0.0
  0
LINE
  8
0
 62
     1
 10
0.0496094
 20
79.3238
 30
0.0
 11
6.04957
 21
79.3238
 31
0.0
  0
LINE
  8
0
 62
     1
 10
0.0496094
 20
29.2544
 30
0.0
 11
0.0496094
 21
39.8544
 31
0.0
  0
LINE
  8
0
 62
     1
 10
0.0496094
 20
39.8544
 30
0.0
 11
6.04957
 21
39.8544
 31
0.0
  0
LINE
  8
0
 62
     1
 10
0.0496094
 20
29.2544
 30
0.0
 11
6.04957
 21
29.2544
 31
0.0
  0
LINE
  8
0
 62
     1
 10
65.9211
 20
105.675
 30
0.0
 11
76.521
 21
105.675
 31
0.0
  0
LINE
  8
0
 62
     1
 10
76.521
 20
105.675
 30
0.0
 11
76.521
 21
99.6763
 31
0.0
  0
LINE
  8
0
 62
     1
 10
65.9211
 20
105.675
 30
0.0
 11
65.9211
 21
99.6763
 31
0.0
  0
LINE
  8
0
 62
     1
 10
16.1506
 20
105.675
 30
0.0
 11
26.4501
 21
105.675
 31
0.0
  0
LINE
  8
0
 62
     1
 10
26.4501
 20
105.675
 30
0.0
 11
26.4501
 21
99.6763
 31
0.0
  0
LINE
  8
0
 62
     1
 10
16.1506
 20
105.675
 30
0.0
 11
16.1506
 21
99.6763
 31
0.0
  0
LINE
  8
0
 62
     1
 10
76.521
 20
99.6763
 30
0.0
 11
86.221
 21
99.6763
 31
0.0
  0
LINE
  8
0
 62
     1
 10
5.99997
 20
99.6763
 30
0.0
 11
16.1506
 21
99.6763
 31
0.0
  0
LINE
  8
0
 62
     1
 10
26.4501
 20
99.6763
 30
0.0
 11
65.9211
 21
99.6763
 31
0.0
  0
LINE
  8
0
 62
     1
 10
6.04957
 20
19.5034
 30
0.0
 11
12.0496
 21
19.5034
 31
0.0
  0
LINE
  8
0
 62
     1
 10
86.221
 20
99.6763
 30
0.0
 11
86.221
 21
93.6748
 31
0.0
  0
LINE
  8
0
 62
     1
 10
86.221
 20
93.6748
 30
0.0
 11
83.6126
 21
93.6791
 31
0.0
  0
LINE
  8
0
 62
     1
 10
83.6126
 20
93.6791
 30
0.0
 11
75.7894
 21
93.3277
 31
0.0
  0
LINE
  8
0
 62
     1
 10
75.7894
 20
93.3277
 30
0.0
 11
66.3166
 21
92.2722
 31
0.0
  0
LINE
  8
0
 62
     1
 10
66.3166
 20
92.2722
 30
0.0
 11
57.7603
 21
90.5386
 31
0.0
  0
LINE
  8
0
 62
     1
 10
57.7603
 20
90.5386
 30
0.0
 11
50.0821
 21
88.1532
 31
0.0
  0
LINE
  8
0
 62
     1
 10
50.0821
 20
88.1532
 30
0.0
 11
43.2428
 21
85.1489
 31
0.0
  0
LINE
  8
0
 62
     1
 10
43.2428
 20
85.1489
 30
0.0
 11
37.2015
 21
81.5523
 31
0.0
  0
LINE
  8
0
 62
     1
 10
37.2015
 20
81.5523
 30
0.0
 11
31.9195
 21
77.3949
 31
0.0
  0
LINE
  8
0
 62
     1
 10
31.9195
 20
77.3949
 30
0.0
 11
27.3582
 21
72.704
 31
0.0
  0
LINE
  8
0
 62
     1
 10
27.3582
 20
72.704
 30
0.0
 11
23.4776
 21
67.51
 31
0.0
  0
LINE
  8
0
 62
     1
 10
23.4776
 20
67.51
 30
0.0
 11
20.2379
 21
61.8409
 31
0.0
  0
LINE
  8
0
 62
     1
 10
20.2379
 20
61.8409
 30
0.0
 11
17.6003
 21
55.728
 31
0.0
  0
LINE
  8
0
 62
     1
 10
17.6003
 20
55.728
 30
0.0
 11
15.5236
 21
49.1973
 31
0.0
  0
LINE
  8
0
 62
     1
 10
15.5236
 20
49.1973
 30
0.0
 11
13.9692
 21
42.2811
 31
0.0
  0
LINE
  8
0
 62
     1
 10
13.9692
 20
42.2811
 30
0.0
 11
12.8984
 21
35.0077
 31
0.0
  0
LINE
  8
0
 62
     1
 10
12.8984
 20
35.0077
 30
0.0
 11
12.2714
 21
27.405
 31
0.0
  0
LINE
  8
0
 62
     1
 10
12.2714
 20
27.405
 30
0.0
 11
12.0578
 21
21.4795
 31
0.0
  0
LINE
  8
0
 62
     1
 10
12.0578
 20
21.4795
 30
0.0
 11
12.0496
 21
19.5034
 31
0.0
  0
LINE
  8
0
 62
     1
 10
70.4702
 20
6.04957
 30
0.0
 11
80.221
 21
6.04957
 31
0.0
  0
LINE
  8
0
 62
     1
 10
0
 20
6.04957
 30
0.0
 11
9.80063
 21
6.04957
 31
0.0
  0
LINE
  8
0
 62
     1
 10
20.4005
 20
6.04957
 30
0.0
 11
59.8703
 21
6.04957
 31
0.0
  0
LINE
  8
0
 62
     1
 10
59.8703
 20
0.0496094
 30
0.0
 11
70.4702
 21
0.0496094
 31
0.0
  0
LINE
  8
0
 62
     1
 10
70.4702
 20
0.0496094
 30
0.0
 11
70.4702
 21
6.04957
 31
0.0
  0
LINE
  8
0
 62
     1
 10
59.8703
 20
0.0496094
 30
0.0
 11
59.8703
 21
6.04957
 31
0.0
  0
LINE
  8
0
 62
     1
 10
9.80063
 20
0.0496094
 30
0.0
 11
20.4005
 21
0.0496094
 31
0.0
  0
LINE
  8
0
 62
     1
 10
20.4005
 20
0.0496094
 30
0.0
 11
20.4005
 21
6.04957
 31
0.0
  0
LINE
  8
0
 62
     1
 10
9.80063
 20
0.0496094
 30
0.0
 11
9.80063
 21
6.04957
 31
0.0
  0
LINE
  8
0
 62
     1
 10
86.221
 20
65.9197
 30
0.0
 11
86.221
 21
76.5196
 31
0.0
  0
LINE
  8
0
 62
     1
 10
86.221
 20
76.5196
 30
0.0
 11
80.221
 21
76.5196
 31
0.0
  0
LINE
  8
0
 62
     1
 10
86.221
 20
65.9197
 30
0.0
 11
80.221
 21
65.9197
 31
0.0
  0
LINE
  8
0
 62
     1
 10
86.221
 20
16.1492
 30
0.0
 11
86.221
 21
26.4501
 31
0.0
  0
LINE
  8
0
 62
     1
 10
86.221
 20
26.4501
 30
0.0
 11
80.221
 21
26.4501
 31
0.0
  0
LINE
  8
0
 62
     1
 10
86.221
 20
16.1492
 30
0.0
 11
80.221
 21
16.1492
 31
0.0
  0
LINE
  8
0
 62
     1
 10
80.221
 20
76.5196
 30
0.0
 11
80.221
 21
86.2196
 31
0.0
  0
LINE
  8
0
 62
     1
 10
80.221
 20
5.9986
 30
0.0
 11
80.221
 21
16.1492
 31
0.0
  0
LINE
  8
0
 62
     1
 10
80.221
 20
26.4501
 30
0.0
 11
80.221
 21
65.9197
 31
0.0
  0
LINE
  8
0
 62
     1
 10
0.0496094
 20
6.04957
 30
0.0
 11
0.0496094
 21
12.0496
 31
0.0
  0
LINE
  8
0
 62
     1
 10
80.221
 20
86.221
 30
0.0
 11
74.2213
 21
86.221
 31
0.0
  0
LINE
  8
0
 62
     1
 10
74.2213
 20
86.221
 30
0.0
 11
74.2237
 21
83.614
 31
0.0
  0
LINE
  8
0
 62
     1
 10
74.2237
 20
83.614
 30
0.0
 11
73.8724
 21
75.7908
 31
0.0
  0
LINE
  8
0
 62
     1
 10
73.8724
 20
75.7908
 30
0.0
 11
72.8169
 21
66.3166
 31
0.0
  0
LINE
  8
0
 62
     1
 10
72.8169
 20
66.3166
 30
0.0
 11
71.0833
 21
57.7603
 31
0.0
  0
LINE
  8
0
 62
     1
 10
71.0833
 20
57.7603
 30
0.0
 11
68.6978
 21
50.0835
 31
0.0
  0
LINE
  8
0
 62
     1
 10
68.6978
 20
50.0835
 30
0.0
 11
65.6939
 21
43.2428
 31
0.0
  0
LINE
  8
0
 62
     1
 10
65.6939
 20
43.2428
 30
0.0
 11
62.097
 21
37.2015
 31
0.0
  0
LINE
  8
0
 62
     1
 10
62.097
 20
37.2015
 30
0.0
 11
57.9395
 21
31.9209
 31
0.0
  0
LINE
  8
0
 62
     1
 10
57.9395
 20
31.9209
 30
0.0
 11
53.2486
 21
27.3596
 31
0.0
  0
LINE
  8
0
 62
     1
 10
53.2486
 20
27.3596
 30
0.0
 11
48.055
 21
23.479
 31
0.0
  0
LINE
  8
0
 62
     1
 10
48.055
 20
23.479
 30
0.0
 11
42.3855
 21
20.2392
 31
0.0
  0
LINE
  8
0
 62
     1
 10
42.3855
 20
20.2392
 30
0.0
 11
36.2726
 21
17.6003
 31
0.0
  0
LINE
  8
0
 62
     1
 10
36.2726
 20
17.6003
 30
0.0
 11
29.7422
 21
15.525
 31
0.0
  0
LINE
  8
0
 62
     1
 10
29.7422
 20
15.525
 30
0.0
 11
22.8258
 21
13.9706
 31
0.0
  0
LINE
  8
0
 62
     1
 10
22.8258
 20
13.9706
 30
0.0
 11
15.5525
 21
12.8998
 31
0.0
  0
LINE
  8
0
 62
     1
 10
15.5525
 20
12.8998
 30
0.0
 11
7.94992
 21
12.2728
 31
0.0
  0
LINE
  8
0
 62
     1
 10
7.94992
 20
12.2728
 30
0.0
 11
2.02434
 21
12.0578
 31
0.0
  0
LINE
  8
0
 62
     1
 10
2.02434
 20
12.0578
 30
0.0
 11
0.0496094
 21
12.0496
 31
0.0
  0
ENDSEC
  0
EOF
